<?xml version="1.0" standalone="no"?><!DOCTYPE svg PUBLIC "-//W3C//DTD SVG 1.1//EN" "http://www.w3.org/Graphics/SVG/1.1/DTD/svg11.dtd"><svg t="1644478386582" class="icon" viewBox="0 0 22528 1024" version="1.1" xmlns="http://www.w3.org/2000/svg" p-id="2313" xmlns:xlink="http://www.w3.org/1999/xlink" width="4400" height="200"><defs><style type="text/css"></style></defs><path d="M7891.2 861.866667l-135.68-688.64-24.32-35.84h258.56l97.28 503.04 245.76-503.04h245.76l-343.04 724.48h-344.32zM9038.336 137.386667l-111.36 724.48h-232.96l85.76-675.84-37.12-48.64h295.68zM10007.466667 137.386667l-48.64 392.96c-6.826667 24.746667-20.48 45.226667-40.96 61.44-19.626667 16.213333-38.826667 24.32-57.6 24.32h-430.08l-37.12 245.76h-232.96l85.76-688.64-37.12-35.84h798.72z m-527.36 122.88l-25.6 232.96h258.56l37.12-232.96h-270.08zM10967.552 404.906667l-6.4 48.64h-632.32l6.4-48.64h-218.88L10429.952 63.146667l-28.16-34.56h546.56l238.08 376.32h-218.88z m-112.64 545.28l-16.64-32-677.12 32 17.92-119.04 221.44-194.56h-291.84l16.64-121.6h1021.44l-16.64 121.6h-463.36l-204.8 180.48 314.88-16.64-46.08-90.88h218.88l124.16 240.64h-218.88z m-428.8-618.24h471.04l-115.2-181.76h-189.44l-166.4 181.76zM11443.626667 100.266667l-40.96-47.36h971.52l-43.52 316.16h-924.16l37.12-268.8z m903.68 317.44l-49.92 353.28h-139.52l-93.44-72.96 23.04-158.72h-486.4l-23.04 158.72-113.92 72.96h-139.52l49.92-353.28h972.8z m-376.32 170.24l-14.08 98.56 340.48 263.68h-344.32l-151.04-115.2-181.76 115.2h-344.32l414.72-263.68 14.08-98.56h266.24z m133.12-340.48l10.24-72.96h-437.76l-10.24 72.96h437.76zM13192.021333 257.706667l56.32 131.84 104.96-154.88 6.4-44.8h-355.84l17.92-126.72h550.4l-29.44 206.08-209.92 313.6 157.44 363.52h-218.88l-71.68-165.12-111.36 166.4h-217.6l244.48-360.96-124.16-289.28 6.4-39.68h194.56z m-545.28 44.8h-130.56l16.64-121.6h130.56l16.64-113.92-32-37.12h243.2l-21.76 151.04h115.2l-16.64 121.6h-115.2l-92.16 648.96h-206.08l92.16-648.96z m-215.04 601.6l102.4-560.64h90.88l-102.4 560.64h-90.88z m382.72-72.96l43.52-487.68h90.88l-43.52 487.68h-90.88zM13662.976 805.546667l40.96-291.84h965.12l-42.24 291.84h53.76l-17.92 120.32h-1068.8l17.92-120.32h51.2z m416-766.72l44.8 147.2h217.6l67.84-108.8-48.64-37.12h352l-85.76 145.92h139.52l-17.92 119.04h-1064.96l17.92-119.04h136.96l-43.52-147.2h284.16z m550.4 295.68l96 153.6h-313.6l-96-153.6h313.6z m-533.76 0l-124.16 153.6h-311.04l124.16-153.6h311.04z m-227.84 471.04h71.68l23.04-163.84h-71.68l-23.04 163.84z m519.68-163.84l-23.04 163.84h70.4l24.32-163.84h-71.68z m-266.24 163.84h61.44l23.04-163.84h-61.44l-23.04 163.84z" fill="#666666" p-id="2314"></path><path d="M0 341.333333h6826.666667V256H0v85.333333z m2389.333333 341.333334h4437.333334V597.333333H2389.333333v85.333334zM22528 341.333333h-6826.666667V256h6826.666667v85.333333z m-2389.333333 341.333334h-4437.333334V597.333333h4437.333334v85.333334z" fill="#DADADA" p-id="2315"></path></svg>