<?xml version="1.0" standalone="no"?><!DOCTYPE svg PUBLIC "-//W3C//DTD SVG 1.1//EN" "http://www.w3.org/Graphics/SVG/1.1/DTD/svg11.dtd"><svg t="1651908207231" class="icon" viewBox="0 0 1024 1024" version="1.1" xmlns="http://www.w3.org/2000/svg" p-id="5272" xmlns:xlink="http://www.w3.org/1999/xlink" width="300" height="300"><defs><style type="text/css">@font-face { font-family: feedback-iconfont; src: url("//at.alicdn.com/t/font_1031158_u69w8yhxdu.woff2?t=1630033759944") format("woff2"), url("//at.alicdn.com/t/font_1031158_u69w8yhxdu.woff?t=1630033759944") format("woff"), url("//at.alicdn.com/t/font_1031158_u69w8yhxdu.ttf?t=1630033759944") format("truetype"); }
</style></defs><path d="M210.2784 813.7216A426.7008 426.7008 0 1 0 813.7216 210.2784 426.7008 426.7008 0 0 0 210.2784 813.7216z" fill="#A8A8A8" opacity=".2" p-id="5273"></path><path d="M420.4032 362.24A41.1648 41.1648 0 1 0 362.24 420.352L453.8368 512l-91.648 91.5968a41.1648 41.1648 0 0 0 58.2144 58.1632L512 570.1632l91.5968 91.648a41.1136 41.1136 0 1 0 58.1632-58.2144L570.1632 512l91.648-91.5968a41.1648 41.1648 0 1 0-58.2144-58.1632L512 453.8368l-91.5968-91.648z" fill="#A8A8A8" p-id="5274"></path></svg>