<?xml version="1.0" standalone="no"?><!DOCTYPE svg PUBLIC "-//W3C//DTD SVG 1.1//EN" "http://www.w3.org/Graphics/SVG/1.1/DTD/svg11.dtd"><svg t="1651214320095" class="icon" viewBox="0 0 1347 1024" version="1.1" xmlns="http://www.w3.org/2000/svg" p-id="3663" xmlns:xlink="http://www.w3.org/1999/xlink" width="263.0859375" height="200"><defs><style type="text/css">@font-face { font-family: feedback-iconfont; src: url("//at.alicdn.com/t/font_1031158_u69w8yhxdu.woff2?t=1630033759944") format("woff2"), url("//at.alicdn.com/t/font_1031158_u69w8yhxdu.woff?t=1630033759944") format("woff"), url("//at.alicdn.com/t/font_1031158_u69w8yhxdu.ttf?t=1630033759944") format("truetype"); }
</style></defs><path d="M105.025641 17.504274h1137.777778c48.136752 0 87.521368 39.384615 87.521367 87.521367v700.17094c0 48.136752-39.384615 87.521368-87.521367 87.521368H105.025641c-48.136752 0-87.521368-39.384615-87.521367-87.521368V105.025641C17.504274 56.888889 56.888889 17.504274 105.025641 17.504274z" fill="#666666" opacity=".2" p-id="3664"></path><path d="M1242.803419 910.222222H105.025641c-57.764103 0-105.025641-47.261538-105.025641-105.025641V105.025641C0 47.261538 47.261538 0 105.025641 0h1137.777778c57.764103 0 105.025641 47.261538 105.025641 105.025641v700.17094c0 57.764103-47.261538 105.025641-105.025641 105.025641zM105.025641 35.008547c-38.509402 0-70.017094 31.507692-70.017094 70.017094v700.17094c0 38.509402 31.507692 70.017094 70.017094 70.017094h1137.777778c38.509402 0 70.017094-31.507692 70.017094-70.017094V105.025641c0-38.509402-31.507692-70.017094-70.017094-70.017094H105.025641z" fill="#838B99" opacity=".5" p-id="3665"></path><path d="M122.529915 96.273504h1102.76923c14.878632 0 26.25641 11.377778 26.256411 26.256411v665.162393c0 14.878632-11.377778 26.25641-26.256411 26.25641H122.529915c-14.878632 0-26.25641-11.377778-26.256411-26.25641V122.529915c0-14.878632 11.377778-26.25641 26.256411-26.256411z" fill="#A8A8A8" opacity=".08" p-id="3666"></path><path d="M1225.299145 829.702564H122.529915c-22.755556 0-42.010256-19.254701-42.010257-42.010256V122.529915c0-22.755556 19.254701-42.010256 42.010257-42.010257h1102.76923c22.755556 0 42.010256 19.254701 42.010257 42.010257v665.162393c0 22.755556-19.254701 42.010256-42.010257 42.010256z m-1102.76923-717.675214c-6.126496 0-10.502564 4.376068-10.502565 10.502565v665.162393c0 6.126496 4.376068 10.502564 10.502565 10.502564h1102.76923c6.126496 0 10.502564-4.376068 10.502564-10.502564V122.529915c0-6.126496-4.376068-10.502564-10.502564-10.502565H122.529915z" fill="#838B99" opacity=".5" p-id="3667"></path><path d="M472.615385 980.239316h402.59829c9.62735 0 17.504274 7.876923 17.504274 17.504274s-7.876923 17.504274-17.504274 17.504273H472.615385c-9.62735 0-17.504274-7.876923-17.504274-17.504273s7.876923-17.504274 17.504274-17.504274z" fill="#838B99" fill-opacity=".5" p-id="3668"></path><path d="M735.179487 437.606838h-8.752137v-26.256411c0-14.003419-5.251282-27.131624-15.753846-36.758974-9.62735-10.502564-22.755556-15.753846-36.758974-15.753846s-27.131624 5.251282-36.758974 15.753846C626.652991 384.218803 621.401709 397.347009 621.401709 411.350427v26.256411h-8.752136c-14.878632 0-26.25641 11.377778-26.256411 26.25641v61.264957c0 14.878632 11.377778 26.25641 26.256411 26.25641h122.529914c14.878632 0 26.25641-11.377778 26.25641-26.25641v-61.264957c0-14.878632-11.377778-26.25641-26.25641-26.25641z m-96.273504-26.256411c0-9.62735 3.500855-18.379487 10.502564-24.505983 13.128205-13.128205 35.883761-13.128205 49.887179 0 7.001709 7.001709 10.502564 15.753846 10.502565 24.505983v26.256411h-70.017094v-26.256411z m105.025641 113.777778c0 5.251282-3.500855 8.752137-8.752137 8.752137H612.649573c-5.251282 0-8.752137-3.500855-8.752137-8.752137v-61.264957c0-5.251282 3.500855-8.752137 8.752137-8.752137h122.529914c5.251282 0 8.752137 3.500855 8.752137 8.752137v61.264957z" fill="#838B99" p-id="3669"></path></svg>