<?xml version="1.0" standalone="no"?><!DOCTYPE svg PUBLIC "-//W3C//DTD SVG 1.1//EN" "http://www.w3.org/Graphics/SVG/1.1/DTD/svg11.dtd"><svg t="1644571858070" class="icon" viewBox="0 0 1024 1024" version="1.1" xmlns="http://www.w3.org/2000/svg" p-id="2603" xmlns:xlink="http://www.w3.org/1999/xlink" width="200" height="200"><defs><style type="text/css"></style></defs><path d="M143.847619 0h736.304762v1024H143.847619z" fill="#FFFFFF" p-id="2604"></path><path d="M859.672381 413.988571v498.346667c0 7.801905 0 14.628571-0.487619 20.967619-0.487619 6.339048-1.462857 12.678095-2.925714 18.529524-2.438095 10.727619-7.314286 20.48-15.116191 28.281905-7.801905 7.801905-17.554286 13.165714-28.281905 15.11619-6.339048 1.462857-12.190476 2.438095-18.529523 2.925714-6.826667 0.487619-13.653333 0.487619-20.967619 0.48762H251.12381c-7.801905 0-14.628571 0-20.96762-0.48762-6.339048-0.487619-12.678095-1.462857-18.529523-2.925714-10.727619-2.438095-20.48-7.314286-28.281905-15.11619s-13.165714-17.554286-15.116191-28.281905c-1.462857-6.339048-2.438095-12.190476-2.925714-18.529524-0.487619-6.826667-0.487619-13.653333-0.487619-20.967619V111.664762c0-7.801905 0-14.628571 0.487619-20.967619 0.487619-6.339048 1.462857-12.678095 2.925714-18.529524 1.950476-10.727619 7.314286-20.48 14.628572-28.281905 7.801905-7.801905 17.554286-12.678095 28.281905-15.11619 6.339048-1.462857 12.190476-2.438095 18.529523-2.925714 6.826667-0.487619 13.653333-0.487619 21.455239-0.48762h218.940952c23.893333 0 51.687619 0 78.019048 2.438096s52.175238 7.314286 77.531428 14.628571c25.35619 7.314286 50.224762 18.041905 73.142857 31.695238 46.811429 27.306667 85.333333 66.31619 112.64 112.64 13.653333 22.918095 23.893333 47.299048 31.695238 72.655238 7.314286 25.35619 12.190476 51.2 14.140953 77.04381 2.438095 26.331429 2.438095 53.638095 2.438095 77.531428z" fill="#A8A8A8" opacity=".01" p-id="2605"></path><path d="M859.672381 335.969524c-1.950476-26.331429-6.826667-52.175238-14.140952-77.531429-7.314286-25.84381-18.041905-50.224762-31.695239-73.630476-27.794286-46.811429-66.80381-85.820952-113.615238-113.615238-23.405714-13.653333-48.274286-24.380952-74.118095-31.695238C600.259048 32.670476 574.415238 27.794286 548.571429 25.84381c-26.819048-2.438095-53.638095-2.438095-78.506667-2.438096H251.12381c-7.801905 0-14.628571 0-21.455239 0.487619-6.339048 0.487619-12.678095 1.462857-19.017142 2.925715-11.215238 2.438095-20.967619 7.801905-29.257143 15.603809-7.801905 8.289524-13.165714 18.041905-16.091429 29.257143-1.462857 6.339048-2.438095 12.678095-2.925714 19.017143-0.487619 6.826667-0.487619 13.653333-0.487619 21.455238v800.182857c0 7.801905 0 14.628571 0.487619 20.967619 0.487619 6.339048 1.462857 12.678095 2.925714 19.017143 2.438095 11.215238 7.801905 21.455238 16.091429 29.257143 7.801905 7.801905 18.041905 13.653333 29.257143 15.603809 6.339048 1.462857 12.678095 2.438095 19.017142 2.925715 6.826667 0.487619 13.653333 0.487619 21.455239 0.487619h521.75238c7.801905 0 14.628571 0 21.455239-0.487619 6.339048-0.487619 12.678095-1.462857 19.017142-2.925715 11.215238-2.438095 21.455238-7.801905 29.257143-15.603809 7.801905-7.801905 13.653333-18.041905 16.091429-29.257143 1.462857-6.339048 2.438095-12.678095 2.925714-19.017143 0.487619-6.826667 0.487619-13.653333 0.487619-20.967619V413.988571c0-23.893333 0-51.687619-2.438095-78.019047z m0 576.365714c0 7.801905 0 14.628571-0.487619 20.967619-0.487619 6.339048-1.462857 12.678095-2.925714 18.529524-2.438095 10.727619-7.314286 20.48-15.116191 28.281905-7.801905 7.801905-17.554286 13.165714-28.281905 15.11619-6.339048 1.462857-12.190476 2.438095-18.529523 2.925714-6.826667 0.487619-13.653333 0.487619-20.967619 0.48762H251.12381c-7.801905 0-14.628571 0-20.96762-0.48762-6.339048-0.487619-12.678095-1.462857-18.529523-2.925714-10.727619-2.438095-20.48-7.314286-28.281905-15.11619-7.801905-7.801905-13.165714-17.554286-15.116191-28.281905-1.462857-6.339048-2.438095-12.190476-2.925714-18.529524-0.487619-6.826667-0.487619-13.653333-0.487619-20.967619V111.664762c0-7.801905 0-14.628571 0.487619-20.967619 0.487619-6.339048 1.462857-12.678095 2.925714-18.529524 1.950476-10.727619 7.314286-20.48 14.628572-28.281905 7.801905-7.801905 17.554286-12.678095 28.281905-15.11619 6.339048-1.462857 12.190476-2.438095 18.529523-2.925714 6.826667-0.487619 13.653333-0.487619 21.455239-0.48762h218.940952c23.893333 0 51.687619 0 78.019048 2.438096s52.175238 7.314286 77.531428 14.628571c25.35619 7.314286 50.224762 18.041905 73.142857 31.695238 46.811429 27.306667 85.333333 66.31619 112.64 112.64 13.653333 22.918095 23.893333 47.299048 31.695238 72.655238 7.314286 25.35619 12.190476 51.2 14.140953 77.04381 2.438095 26.819048 2.438095 53.638095 2.438095 78.019047v497.859048z" fill="#A9A9A9" fill-opacity=".7" p-id="2606"></path><path d="M874.788571 91.184762c-0.487619-6.826667-1.462857-14.140952-2.925714-20.967619s-3.900952-13.653333-7.314286-19.992381c-6.826667-13.165714-17.066667-23.893333-30.72-30.232381-6.339048-3.413333-13.165714-5.851429-19.992381-7.314286-6.826667-1.462857-13.653333-2.438095-20.967619-2.925714H251.12381c-6.339048 0-13.653333 0-19.992381 0.487619-6.826667 0.487619-14.140952 1.462857-20.967619 2.925714-7.314286 1.462857-14.140952 3.900952-20.48 6.826667-6.339048 3.413333-12.190476 7.801905-17.554286 12.678095-5.36381 5.36381-9.752381 11.215238-12.678095 18.041905-3.413333 6.339048-5.851429 12.678095-7.314286 19.992381-1.462857 6.826667-2.438095 13.653333-2.925714 20.967619-0.487619 6.826667-0.487619 14.140952-0.487619 19.992381v800.670476c0 6.339048 0 13.653333 0.487619 19.992381 0.487619 6.826667 1.462857 14.140952 2.925714 20.967619s3.900952 13.653333 7.314286 19.992381c3.413333 6.339048 7.801905 12.678095 12.678095 17.554286 5.36381 5.36381 11.215238 9.264762 17.554286 12.678095 6.339048 3.413333 13.165714 5.851429 19.99238 7.314286 6.826667 1.462857 13.653333 2.438095 20.96762 2.925714 6.826667 0.487619 14.140952 0.487619 19.99238 0.487619H772.87619c6.339048 0 13.653333 0 19.992381-0.487619 6.826667-0.487619 14.140952-1.462857 20.967619-2.925714s13.653333-3.900952 19.992381-7.314286c13.165714-6.339048 23.893333-17.066667 30.72-30.232381 3.413333-6.339048 5.851429-13.165714 7.314286-19.992381 1.462857-6.826667 2.438095-13.653333 2.925714-20.967619 0.487619-6.826667 0.487619-14.140952 0.487619-19.992381V111.664762c0-6.339048 0-13.165714-0.487619-20.48z m-1.950476 821.150476c0 6.339048 0 13.653333-0.487619 19.992381-0.487619 6.826667-1.462857 13.653333-2.925714 19.992381-1.462857 6.826667-3.900952 13.165714-6.826667 19.504762-3.413333 6.339048-7.314286 12.190476-12.190476 17.066667s-10.727619 9.264762-17.066667 12.190476c-6.339048 2.925714-12.678095 5.36381-19.504762 6.826666-6.826667 1.462857-13.165714 2.438095-19.99238 2.925715-6.826667 0.487619-14.140952 0.487619-19.992381 0.487619H251.12381c-6.339048 0-13.653333 0-19.992381-0.487619-6.826667-0.487619-13.653333-1.462857-19.992381-2.925715-6.826667-1.462857-13.653333-3.413333-19.504762-6.826666-6.339048-2.925714-12.190476-7.314286-17.066667-12.190476s-9.264762-10.727619-12.190476-17.066667c-2.925714-6.339048-5.36381-12.678095-6.826667-19.504762-1.462857-6.826667-2.438095-13.165714-2.925714-19.992381-0.487619-6.826667-0.487619-14.140952-0.487619-19.992381V111.664762c0-6.339048 0-13.653333 0.487619-19.992381 0.487619-6.826667 1.462857-13.653333 2.925714-19.992381 1.462857-6.826667 3.900952-13.165714 6.826667-19.504762 2.925714-6.339048 7.314286-12.190476 12.190476-17.066667s10.727619-9.264762 17.066667-12.190476c6.339048-2.925714 12.678095-5.36381 19.504762-6.826666 6.826667-1.462857 13.165714-2.438095 19.992381-2.925715 6.826667-0.487619 14.140952-0.487619 19.992381-0.487619h521.75238c6.339048 0 13.653333 0 19.992381 0.487619 6.826667 0.487619 13.653333 1.462857 19.992381 2.925715 6.826667 1.462857 13.653333 3.900952 19.992381 6.826666 6.339048 3.413333 12.190476 7.314286 17.066667 12.190476s9.264762 10.727619 12.190476 17.066667c2.925714 6.339048 5.36381 12.678095 6.826667 19.504762 1.462857 6.826667 2.438095 13.165714 2.925714 19.992381 0.487619 6.826667 0.487619 14.140952 0.487619 19.992381l0.487619 800.670476z" fill="#A9A9A9" fill-opacity=".7" p-id="2607"></path><path d="M872.350476 91.672381c-0.487619-6.826667-1.462857-13.653333-2.925714-19.992381-1.462857-6.826667-3.900952-13.165714-6.826667-19.504762-3.413333-6.339048-7.314286-12.190476-12.190476-17.066667s-10.727619-9.264762-17.066667-12.190476c-6.339048-2.925714-13.165714-5.36381-19.992381-6.826666-6.826667-1.462857-13.165714-2.438095-19.992381-2.925715-6.826667-0.487619-14.140952-0.487619-19.99238-0.487619H251.12381c-6.339048 0-13.653333 0-19.992381 0.487619-6.826667 0.487619-13.653333 1.462857-19.992381 2.925715-6.826667 1.462857-13.653333 3.900952-19.504762 6.826666-7.314286 2.438095-12.678095 6.826667-18.041905 11.702857-4.87619 4.87619-9.264762 10.727619-12.190476 17.066667-2.925714 6.339048-5.36381 12.678095-6.826667 19.504762-1.462857 6.826667-2.438095 13.165714-2.925714 19.992381-0.487619 6.826667-0.487619 14.140952-0.487619 19.992381V911.847619c0 6.339048 0 13.653333 0.487619 19.992381 0.487619 6.826667 1.462857 13.653333 2.925714 19.992381 1.462857 6.826667 3.900952 13.165714 6.826667 19.504762 3.413333 6.339048 7.314286 12.190476 12.190476 17.066667s10.727619 9.264762 17.066667 12.190476c6.339048 2.925714 12.678095 5.36381 19.504762 6.826666 6.826667 1.462857 13.165714 2.438095 19.99238 2.925715 6.826667 0.487619 14.140952 0.487619 19.992381 0.487619h522.24c6.339048 0 13.653333 0 19.992381-0.487619 6.826667-0.487619 13.653333-1.462857 19.992381-2.925715 6.826667-1.462857 13.653333-3.413333 19.504762-6.826666 6.339048-2.925714 12.190476-7.314286 17.066667-12.190476s9.264762-10.727619 12.190476-17.066667c2.925714-6.339048 5.36381-12.678095 6.826667-19.504762 1.462857-6.826667 2.438095-13.165714 2.925714-19.992381 0.487619-6.826667 0.487619-14.140952 0.487619-19.992381V111.664762c1.462857-6.339048 1.462857-13.165714 0.975238-19.992381z m-178.468571-45.348571c0.487619-2.438095 1.950476-4.388571 3.900952-5.851429 1.950476-1.462857 4.388571-2.438095 6.826667-2.438095h68.266666c10.727619-0.487619 21.455238 0.487619 31.695239 1.950476 4.87619 0.975238 9.752381 2.438095 14.628571 4.388571 4.388571 1.950476 8.777143 4.87619 12.190476 8.289524s6.339048 7.801905 8.289524 12.190476c1.950476 4.87619 3.413333 9.752381 4.388571 14.628572 1.462857 10.727619 2.438095 20.967619 1.950477 31.695238V180.419048c0 2.438095-0.975238 4.87619-2.438096 6.826666-1.462857 1.950476-3.413333 3.413333-5.851428 3.900953h-2.925714c-1.462857 0-2.925714-0.487619-4.388572-0.975238-2.438095-0.975238-3.900952-2.438095-5.363809-4.388572-29.744762-53.638095-74.118095-97.52381-127.756191-127.268571-1.950476-0.975238-3.900952-2.925714-4.87619-5.36381 0.975238-2.438095 0.975238-4.87619 1.462857-6.826666z m167.740952 866.011428c0 7.801905 0 14.628571-0.487619 20.967619-0.487619 6.339048-1.462857 12.678095-2.925714 19.017143-2.438095 11.215238-7.801905 21.455238-16.091429 29.257143-7.801905 7.801905-18.041905 13.653333-29.257143 15.603809-6.339048 1.462857-12.678095 2.438095-19.017142 2.925715-6.826667 0.487619-13.653333 0.487619-21.455239 0.487619H251.12381c-7.801905 0-14.628571 0-21.455239-0.487619-6.339048-0.487619-12.678095-1.462857-19.017142-2.925715-11.215238-2.438095-21.455238-7.801905-29.257143-15.603809-7.801905-7.801905-13.653333-18.041905-16.091429-29.257143-1.462857-6.339048-2.438095-12.678095-2.925714-19.017143-0.487619-6.826667-0.487619-13.653333-0.487619-20.967619V111.664762c0-7.801905 0-14.628571 0.487619-20.967619 0.487619-6.339048 1.462857-12.678095 2.925714-19.017143 2.438095-11.215238 7.801905-20.967619 16.091429-29.257143 8.289524-7.801905 18.041905-13.165714 29.257143-15.603809 6.339048-1.462857 12.678095-2.438095 19.017142-2.925715 6.826667-0.975238 13.653333-0.975238 21.455239-0.975238h218.940952c24.380952 0 51.687619 0 78.506667 2.438095 26.331429 1.950476 52.175238 6.826667 78.019047 14.140953 25.84381 7.314286 50.712381 18.041905 74.118095 31.695238 46.811429 27.306667 86.308571 66.31619 113.615239 113.615238 13.653333 22.918095 24.380952 47.786667 31.695238 73.630476 7.314286 25.35619 12.190476 51.2 14.140952 77.531429 2.438095 26.819048 2.438095 53.638095 2.438095 78.019047l-0.975238 498.346667z" fill="#A8A8A8" opacity=".1" p-id="2608"></path><path d="M845.04381 79.969524c-0.975238-4.87619-2.438095-10.24-4.388572-14.628572-1.950476-4.388571-4.87619-8.777143-8.289524-12.190476s-7.801905-6.339048-12.190476-8.289524c-4.87619-1.950476-9.752381-3.413333-14.628571-4.388571-10.727619-1.462857-20.967619-2.438095-31.695238-1.950476h-68.754286c-2.438095 0-4.87619 0.975238-6.826667 2.438095-1.950476 1.462857-3.413333 3.413333-3.900952 5.851429-0.487619 2.438095-0.487619 4.388571 0.487619 6.826666 0.975238 1.950476 2.438095 3.900952 4.87619 5.36381 53.638095 29.744762 98.011429 74.118095 127.756191 127.268571 0.975238 1.950476 2.925714 3.900952 5.363809 4.388572 1.462857 0.487619 2.925714 0.975238 4.388572 0.975238h2.925714c2.438095-0.487619 4.388571-1.950476 5.851429-3.900953 1.462857-1.950476 2.438095-4.388571 2.438095-6.826666V111.664762c-1.462857-10.727619-1.950476-21.455238-3.413333-31.695238z m-0.48762 100.449524c0 1.950476-0.487619 3.413333-1.950476 4.87619-0.975238 1.462857-2.925714 2.438095-4.388571 2.925714-1.950476 0.487619-3.900952 0.487619-5.36381-0.487619-1.462857-0.975238-2.925714-1.950476-3.900952-3.413333-30.232381-54.125714-74.605714-98.499048-128.731429-128.24381-1.462857-0.975238-2.925714-2.438095-3.413333-3.900952-0.975238-1.462857-0.975238-3.413333-0.487619-5.363809 0.487619-1.950476 1.462857-3.413333 2.925714-4.388572 1.462857-0.975238 3.413333-1.950476 4.876191-1.950476H772.87619c10.727619-0.487619 20.967619 0.487619 31.20762 1.950476 4.87619 0.975238 9.752381 2.438095 14.140952 4.388572 4.388571 1.950476 8.289524 4.87619 11.702857 7.801904 3.413333 3.413333 5.851429 7.314286 7.801905 11.702857 1.950476 4.388571 3.413333 9.264762 4.388571 14.140953 1.462857 10.24 1.950476 20.967619 1.950476 31.207619l0.487619 68.754286z" fill="#A9A9A9" fill-opacity=".7" p-id="2609"></path><path d="M467.139048 497.371429c-1.462857-2.438095-3.413333-3.900952-5.851429-4.876191l-0.975238-0.487619 0.975238-0.487619c0.975238-0.975238 2.438095-1.950476 2.925714-2.925714 1.462857-1.950476 1.950476-4.87619 1.950477-7.314286 0-1.950476-0.975238-4.388571-2.438096-5.851429-1.462857-1.462857-2.925714-2.438095-4.87619-3.413333-2.925714-0.975238-5.851429-1.462857-8.777143-1.462857h-22.430476v44.860952H452.510476c1.950476 0 3.413333 0 4.876191-0.487619 2.438095-0.487619 4.87619-1.462857 6.826666-2.925714 1.950476-1.462857 3.413333-3.413333 3.900953-5.36381 0.487619-1.950476 0.487619-3.900952 0-5.851428-0.487619-0.975238-0.487619-2.438095-0.975238-3.413333z m-29.744762-19.017143h10.727619c1.462857 0 2.925714 0 4.388571 0.975238 0.487619 0.487619 1.462857 0.487619 1.950476 1.462857 0.487619 0.487619 0.975238 1.462857 0.975238 1.950476v2.438095c0 0.975238-0.487619 1.462857-0.975238 1.950477-0.975238 0.975238-1.950476 1.462857-2.925714 1.462857-0.975238 0.487619-2.438095 0.487619-3.413333 0.487619h-10.727619v-10.727619z m19.504762 26.331428l-1.462858 1.462857c-0.487619 0.487619-0.975238 0.487619-1.950476 0.975239s-1.950476 0.487619-2.925714 0.487619h-13.653333v-10.727619h12.678095c1.462857 0 2.925714 0.487619 4.388571 0.975238 0.975238 0.487619 1.462857 0.975238 1.950477 1.462857 0.487619 0.975238 0.975238 1.462857 0.975238 2.438095 0.975238 0.975238 0.975238 1.950476 0 2.925714z" fill="#A9A9A9" opacity=".7" p-id="2610"></path><path d="M377.904762 505.660952h19.992381v0.487619l3.900952 8.777143s0 0.487619 0.487619 0.487619h10.727619v-0.487619c-0.975238-1.950476-1.462857-3.900952-2.438095-5.851428l-10.727619-23.405715-6.826667-14.628571s0-0.487619-0.487619-0.487619h-10.24c-0.487619 0-0.487619 0.975238-0.487619 0.975238l-6.826666 16.091429c-1.950476 4.87619-4.388571 9.752381-6.826667 14.628571l-4.876191 11.215238v1.462857h10.72762c1.462857-2.925714 2.438095-6.339048 3.900952-9.264762z m10.24-24.868571l6.826667 17.066667h-13.653334c2.438095-5.851429 4.87619-11.215238 6.826667-17.066667z" fill="#A9A9A9" opacity=".7" p-id="2611"></path><path d="M332.068571 501.76v-22.430476-4.388572-4.388571h-10.24c-0.487619 0 0 44.373333 0 44.860952 0 0.487619 32.182857 0 32.670477 0V507.12381h-22.430477v-5.36381z" fill="#A9A9A9" opacity=".7" p-id="2612"></path><path d="M461.775238 452.510476l9.264762-7.801905c-1.462857-1.950476-2.438095-4.388571-2.925714-6.826666-0.487619-3.413333-0.487619-6.826667 0.975238-10.24 0.975238-2.925714 2.438095-5.36381 4.87619-7.314286 2.438095-1.950476 4.87619-2.925714 7.801905-3.413333 2.438095-0.487619 4.87619-0.487619 7.314286 0l11.215238-6.826667c-1.462857-0.975238-2.925714-1.950476-4.876191-2.438095-2.438095-0.975238-5.36381-1.462857-8.289523-1.950476-4.388571-0.487619-8.289524 0-12.190477 1.462857-6.826667 1.950476-12.678095 6.826667-16.579047 13.165714-1.950476 3.413333-2.925714 7.314286-3.413334 11.215238-0.487619 3.900952 0 7.801905 1.462858 11.702857 1.462857 3.413333 2.925714 6.826667 5.363809 9.264762z" fill="#A9A9A9" opacity=".7" p-id="2613"></path><path d="M513.950476 430.08c-0.487619-5.851429-3.413333-11.215238-7.314286-15.11619L499.321905 424.228571c0.975238 1.950476 1.950476 3.900952 2.438095 5.851429 0.487619 1.462857 0.487619 2.438095 0.487619 3.900952 0 3.900952-1.462857 8.289524-3.900952 11.215238-2.438095 2.925714-5.851429 5.36381-9.752381 5.851429-2.925714 0.487619-5.36381 0.487619-8.289524-0.487619l-12.190476 6.826667c0.975238 0.487619 2.438095 1.462857 3.413333 1.950476 3.900952 1.462857 7.801905 2.438095 11.702857 2.925714 3.900952 0 8.289524-0.487619 12.190476-1.462857 6.339048-1.950476 11.702857-5.851429 15.116191-11.702857 2.925714-5.851429 4.388571-12.678095 3.413333-19.017143z" fill="#A9A9A9" opacity=".7" p-id="2614"></path><path d="M369.615238 460.8V406.674286h-12.190476v33.158095l-0.487619-0.487619-26.331429-32.182857-0.487619-0.487619h-10.24v54.125714h12.678095v-32.182857l0.48762 0.487619 26.331428 31.695238 0.487619 0.487619h0.487619l9.264762-0.487619z" fill="#A9A9A9" opacity=".7" p-id="2615"></path><path d="M439.832381 460.312381c0 0.487619 0 0.487619 0 0 0.487619 0.487619 0.975238 0.487619 0.975238 0.487619h14.140952c-7.801905-10.24-16.091429-19.992381-23.893333-29.744762l22.430476-24.380952H439.832381l-0.487619 0.487619-23.405714 24.380952-0.487619 0.487619V409.6v-2.925714h-12.190477v54.125714h12.678096v-13.653333-0.487619s0-0.487619 0.487619-0.487619l6.339047-6.826667 0.487619-0.487619 0.487619 0.487619 4.876191 5.851428 11.215238 15.116191z" fill="#A9A9A9" opacity=".7" p-id="2616"></path><path d="M592.457143 406.674286c-8.289524 18.041905-16.091429 36.08381-24.380953 54.613333h13.165715c1.462857-3.900952 3.413333-7.801905 4.87619-11.702857h25.356191c1.462857 3.900952 2.925714 7.801905 4.87619 11.702857h13.653334c-8.289524-18.041905-16.091429-36.08381-23.893334-54.125714H592.457143z m-2.438095 33.645714c2.925714-6.826667 5.851429-14.140952 8.777142-20.967619 0.487619 0.487619 8.777143 19.992381 8.777143 20.967619h-17.554285z" fill="#A9A9A9" opacity=".7" p-id="2617"></path><path d="M687.542857 406.674286h-47.786667v10.24h18.041905v44.373333h12.678095v-44.373333h17.554286c0-0.975238 0-9.752381-0.487619-10.24z" fill="#A9A9A9" opacity=".7" p-id="2618"></path><path d="M561.249524 460.8v-9.752381H533.942857v-39.984762-4.388571h-12.678095v54.125714c0.975238 0.487619 39.497143 0 39.984762 0z" fill="#A9A9A9" opacity=".7" p-id="2619"></path><path d="M379.855238 460.8H392.533333V406.674286h-12.678095v54.125714z" fill="#A9A9A9" opacity=".7" p-id="2620"></path><path d="M694.857143 444.708571c-0.975238 0-1.950476 0-3.413333 0.487619l-2.925715 1.462858c-0.975238 0.487619-1.462857 1.462857-1.950476 2.438095-0.487619 0.975238-0.487619 1.950476-0.487619 2.925714 0 0.975238 0 1.950476 0.487619 2.925714 0.487619 0.975238 0.975238 1.950476 1.950476 2.438096 0.975238 0.487619 1.950476 1.462857 2.925715 1.462857 0.975238 0.487619 1.950476 0.487619 3.413333 0.487619 1.950476 0 3.900952-0.975238 4.87619-2.438095 1.462857-1.462857 1.950476-3.413333 1.950477-5.36381 0-1.950476-0.487619-3.900952-1.950477-5.363809-0.975238-0.487619-2.925714-1.462857-4.87619-1.462858z" fill="#A9A9A9" opacity=".7" p-id="2621"></path><path d="M472.990476 430.567619l9.752381 6.826667-26.331428 23.405714 41.447619-23.405714-7.314286-7.801905 21.455238-24.868571z" fill="#A9A9A9" opacity=".7" p-id="2622"></path><path d="M381.318095 907.946667H373.028571v1.950476h8.777143v-1.950476zM646.582857 907.946667h-8.777143v1.950476h8.777143v-1.950476z" fill="#A9A9A9" fill-opacity=".7" p-id="2623"></path><path d="M391.558095 923.062857c0.975238-1.462857 1.462857-2.925714 1.950476-4.388571s0.975238-2.925714 1.462858-3.900953c0.487619-2.438095 0.975238-6.339048 0.975238-11.702857v-9.264762h24.868571v9.752381h-22.430476v6.826667c0 1.950476-0.487619 3.413333-0.487619 4.87619-0.487619 1.462857-0.487619 2.925714-1.462857 4.388572-0.487619 1.462857-1.462857 2.925714-2.438096 4.87619l-2.438095-1.462857z m6.826667-21.942857h19.992381v-5.36381h-19.992381v5.36381z m6.826667 4.388571v7.801905c1.462857-0.487619 2.438095-0.975238 3.900952-1.462857 1.462857-0.487619 2.925714-0.975238 4.388571-1.950476 1.462857-0.487619 2.438095-0.975238 3.900953-1.950476 0.975238-0.487619 1.950476-0.975238 2.438095-1.462857l0.975238 1.950476c-0.975238 0.487619-1.950476 0.975238-3.413333 1.462857s-2.925714 1.462857-4.388572 1.950476c-1.462857 0.487619-2.925714 0.975238-4.388571 1.950476s-2.925714 0.975238-3.900952 1.462857v2.925715c0 0.975238 0 1.462857 0.487619 1.950476 0.487619 0.487619 0.975238 0.487619 1.950476 0.487619H417.889524c0.487619 0 0.487619 0 0.975238-0.487619l0.487619-0.487619v-0.975238-0.975238-1.462858-0.975238-0.975238l2.438095 0.975238V919.649524c0 0.975238-0.487619 1.462857-1.462857 2.438095-0.487619 0.487619-1.950476 0.975238-3.413333 0.975238h-10.727619c-1.462857 0-2.438095-0.487619-2.925715-0.975238s-0.975238-1.462857-0.975238-2.925714v-13.653334h2.925715zM449.584762 891.855238v5.851429h14.140952v2.438095h-14.140952v7.314286h9.752381v15.603809h-21.942857v-15.603809h9.752381v-7.314286h-14.140953v-2.438095h14.140953v-5.851429h2.438095z m-9.752381 29.257143h17.554286v-10.727619h-17.554286v10.727619zM485.180952 907.946667c-0.487619 0.487619-1.462857 0.487619-1.950476 0.975238-0.975238 0.487619-1.462857 0.487619-2.438095 0.975238v12.190476c0 0.487619 0 0.487619-0.487619 0.975238 0 0.487619-0.487619 0.487619-0.975238 0.487619s-0.975238 0-1.462857 0.487619h-2.925715l-0.487619-2.438095H477.866667v-0.487619-10.24c-0.975238 0.487619-1.462857 0.487619-2.438096 0.975238s-1.462857 0.487619-2.438095 0.975238l-0.487619-2.438095c0.975238-0.487619 1.950476-0.487619 2.438095-0.975238 0.975238-0.487619 1.950476-0.487619 2.438096-0.975238v-7.801905h-4.388572v-1.950476h4.388572V892.342857h1.950476v6.339048h3.900952v1.950476h-3.900952v6.826667c0.487619-0.487619 1.462857-0.487619 1.950476-0.975238 0.487619-0.487619 1.462857-0.487619 1.950476-0.975239l1.950476 2.438096z m9.264762 12.190476l2.925715-8.777143c0.975238-2.925714 1.462857-6.339048 2.438095-9.264762l2.438095 0.487619c-0.487619 1.462857-0.487619 2.925714-0.975238 4.388572-0.487619 1.462857-0.975238 2.925714-1.462857 4.87619s-0.975238 2.925714-1.462857 4.388571l-1.462857 4.388572h8.289523v1.950476h-21.942857v-1.950476h11.215238z m9.752381-22.430476v1.950476H485.180952v-1.950476h19.017143z m-13.653333 19.504762c0-0.975238-0.487619-2.438095-0.975238-3.900953-0.487619-1.462857-0.487619-2.438095-0.975238-3.900952-0.487619-1.462857-0.487619-2.438095-0.975238-3.900953-0.487619-0.975238-0.487619-2.438095-0.975238-3.413333l1.950476-0.487619c0.487619 0.975238 0.487619 1.950476 0.975238 3.413333s0.487619 2.438095 0.975238 3.900953c0.487619 1.462857 0.487619 2.438095 0.975238 3.900952 0.487619 1.462857 0.487619 2.438095 0.975238 3.413333l-1.950476 0.975239z m2.925714-19.504762c0-0.975238-0.487619-1.950476-0.975238-2.925715-0.487619-0.975238-0.487619-1.462857-0.975238-2.438095l2.438095-0.487619c0.487619 0.975238 0.487619 1.462857 0.975238 2.438095s0.487619 1.950476 0.975238 2.925715l-2.438095 0.487619zM544.182857 924.038095c-0.975238-0.487619-2.438095-1.462857-3.413333-1.950476l-2.925714-1.462857-2.925715-1.462857c-0.975238-0.487619-1.950476-0.975238-3.413333-1.462857-1.462857 1.462857-3.413333 2.925714-5.851429 3.900952-2.438095 0.975238-5.36381 1.950476-9.264762 2.925714l-0.975238-2.438095c2.438095-0.487619 4.388571-0.975238 5.851429-1.462857l4.388571-1.462857c0.975238-0.487619 2.438095-1.462857 2.925715-1.950476 0.975238-0.487619 1.462857-1.462857 1.950476-2.438096h-15.60381v-2.438095h16.579048c0.487619-0.975238 0.487619-1.950476 0.487619-2.925714s0-1.950476 0.487619-3.413334v-1.462857-1.950476-1.950476-1.462857h2.438095v6.826666c0 0.975238 0 1.950476-0.487619 3.413334 0 0.975238-0.487619 1.950476-0.487619 2.925714h11.702857v2.438095h-12.190476s0 0.487619-0.487619 0.487619c0 0 0 0.487619-0.487619 0.487619l2.925714 1.462858c0.975238 0.487619 1.950476 0.975238 3.413334 1.462857 0.975238 0.487619 1.950476 0.975238 3.413333 1.462857l2.925714 1.462857-0.975238 2.438095z m-14.140952-27.794285c-0.487619-0.487619-0.487619-1.462857-0.975238-1.950477s-0.487619-1.462857-0.975238-1.950476l1.950476-0.975238c0 0.487619 0.487619 0.487619 0.487619 0.975238s0.487619 0.975238 0.487619 0.975238 0.487619 0.975238 0.487619 1.462857c0 0.487619 0.487619 0.975238 0.487619 0.975238H543.695238v6.826667h-2.438095v-4.87619h-23.405714v4.87619h-2.438096v-6.826667h14.628572z m-2.925715 15.603809c-1.462857-0.975238-2.925714-1.950476-4.388571-2.438095-1.462857-0.975238-2.925714-1.462857-3.900952-2.438095l0.975238-1.462858c0.487619 0.487619 1.462857 0.487619 1.950476 0.975239 0.487619 0.487619 1.462857 0.975238 1.950476 0.975238 0.487619 0.487619 1.462857 0.975238 1.950476 1.462857 0.487619 0.487619 1.462857 0.975238 1.950477 0.975238l-0.48762 1.950476z m1.950477-5.363809c-0.487619-0.487619-0.975238-0.975238-1.950477-1.462858-0.487619-0.487619-1.462857-0.975238-1.950476-1.462857-0.487619-0.487619-1.462857-0.975238-1.950476-0.975238-0.487619-0.487619-1.462857-0.487619-1.950476-0.975238l0.975238-1.950476c0.487619 0.487619 0.975238 0.487619 1.950476 0.975238s1.462857 0.975238 1.950476 0.975238c0.487619 0.487619 1.462857 0.975238 1.950477 1.462857 0.487619 0.487619 1.462857 0.975238 1.950476 0.975238l-0.975238 2.438096zM554.910476 914.285714h1.950476c0.975238 0 1.462857 0 2.438096-0.487619 0.975238 0 1.462857-0.487619 2.438095-0.487619 0.487619 0 1.462857-0.487619 1.950476-0.487619v1.950476c-0.487619 0-0.975238 0.487619-1.950476 0.487619-0.487619 0-1.462857 0.487619-2.438095 0.487619s-1.462857 0.487619-2.438096 0.487619h-1.950476v-1.950476z m10.727619-20.48l-0.975238 13.165715h1.462857v12.678095c0 0.487619 0 0.975238-0.487619 1.462857 0 0.487619-0.487619 0.487619-0.487619 0.975238-0.487619 0.487619-0.487619 0.487619-0.975238 0.487619s-0.975238 0-1.950476 0.487619H558.32381l-0.48762-2.438095h4.876191s0.487619 0 0.487619-0.487619l0.487619-0.487619v-0.975238-1.462857-1.950477-2.438095-3.900952h-7.314286l0.975238-11.702857h1.950477l-0.487619 9.752381h3.900952l0.975238-11.215239h-7.801905v-1.950476h9.752381z m0 10.24c2.438095-1.950476 4.388571-3.413333 5.851429-5.363809 1.462857-1.950476 2.925714-3.900952 3.900952-6.339048h2.438095c0.975238 2.438095 2.438095 4.388571 3.900953 6.339048 1.462857 1.950476 3.413333 3.900952 5.851428 5.363809l-1.462857 1.950476c-1.950476-1.462857-3.900952-3.413333-5.851428-5.363809-1.462857-1.950476-2.925714-3.900952-3.900953-5.851429-0.975238 1.950476-2.438095 4.388571-3.900952 5.851429-1.462857 1.950476-3.413333 3.413333-5.851429 5.363809l-0.975238-1.950476z m12.678095 16.091429c0.487619-0.975238 0.487619-1.462857 0.975239-2.438095s0.975238-1.950476 0.975238-3.413334c0.487619-1.462857 0.975238-2.925714 0.975238-3.900952 0.487619-0.975238 0.487619-2.438095 0.975238-2.925714l1.950476 0.487619c-0.487619 1.950476-0.975238 4.388571-1.950476 7.314285-0.487619 0.975238-0.487619 1.950476-0.975238 2.925715s-0.487619 1.950476-0.975238 2.438095h5.851428v1.950476h-19.504762v-1.950476h11.702857z m-7.801904-12.678095c0.487619 0.487619 0.487619 1.462857 0.975238 2.438095s0.487619 1.950476 0.975238 2.925714c0.487619 2.438095 0.975238 3.900952 0.975238 5.36381l-1.950476 0.487619c0-0.487619 0-1.462857-0.487619-2.438096s-0.487619-1.950476-0.487619-2.925714c-0.487619-2.438095-0.975238-3.900952-1.462857-5.363809l1.462857-0.487619z m12.678095-3.900953v1.950476h-13.165714v-1.950476h13.165714z m-7.314286 3.413334c0.487619 0.975238 0.975238 2.438095 1.462857 4.87619 0.487619 1.950476 0.975238 3.413333 0.975238 4.876191l-1.950476 0.487619c0-0.487619 0-1.462857-0.487619-1.950477 0-0.975238-0.487619-1.950476-0.487619-2.925714-0.487619-0.975238-0.487619-1.950476-0.487619-2.925714 0-0.975238-0.487619-1.462857-0.487619-1.950476l1.462857-0.487619zM612.937143 911.36v2.925714h10.727619v1.950476h-10.727619v4.388572h14.140952v1.950476h-30.72v-1.950476h14.140953v-3.900952h-11.215238v-1.950477h11.215238v-2.925714h2.438095z m-1.462857-15.60381l-0.487619-0.975238c0-0.487619-0.487619-0.975238-0.487619-1.462857 0-0.487619-0.487619-0.975238-0.487619-0.975238l2.438095-0.487619c0 0.487619 0.487619 0.487619 0.487619 0.975238s0.487619 0.975238 0.487619 1.462857l0.487619 1.462857h12.190476v5.36381h-2.438095v-2.925714h-23.405714v2.925714h-2.438096v-5.36381h13.653334z m-12.190476 13.165715h0.975238c0.487619 0 0.487619-0.487619 0.975238-0.487619 0.975238-0.975238 1.950476-1.462857 2.925714-2.438096 0.975238-0.975238 1.950476-1.462857 2.925714-2.438095h-7.314285v-1.950476h23.893333v1.950476h-13.653333l-2.925715 2.925715c-0.975238 0.975238-2.438095 1.950476-3.413333 2.438095H619.27619c-0.487619-0.487619-1.462857-0.975238-1.950476-1.462857l-1.462857-1.462858 0.975238-1.462857c0.975238 0.487619 2.438095 1.950476 3.900953 3.413334 0.975238 0.487619 1.462857 1.462857 1.950476 1.950476l1.462857 1.462857-1.462857 1.462857-0.975238-0.975238-0.975238-0.975238c-1.462857 0-2.925714 0-4.876191 0.487619-1.950476 0-3.900952 0-5.851428 0.487619h-11.215239l0.48762-2.925714z" fill="#A9A9A9" opacity=".6" p-id="2624"></path></svg>