<?xml version="1.0" standalone="no"?><!DOCTYPE svg PUBLIC "-//W3C//DTD SVG 1.1//EN" "http://www.w3.org/Graphics/SVG/1.1/DTD/svg11.dtd"><svg t="1653373976588" class="icon" viewBox="0 0 1024 1024" version="1.1" xmlns="http://www.w3.org/2000/svg" p-id="4367" xmlns:xlink="http://www.w3.org/1999/xlink" width="200" height="200"><defs><style type="text/css">@font-face { font-family: feedback-iconfont; src: url("//at.alicdn.com/t/font_1031158_u69w8yhxdu.woff2?t=1630033759944") format("woff2"), url("//at.alicdn.com/t/font_1031158_u69w8yhxdu.woff?t=1630033759944") format("woff"), url("//at.alicdn.com/t/font_1031158_u69w8yhxdu.ttf?t=1630033759944") format("truetype"); }
</style></defs><path d="M772.778667 992.597333H254.634667c-45.056 0-81.237333-36.181333-81.237334-81.237333V135.168C173.397333 90.794667 209.578667 54.613333 254.634667 54.613333h518.144c45.056 0 81.237333 36.181333 81.237333 81.237334v776.192c0 44.373333-36.181333 80.554667-81.237333 80.554666zM254.634667 75.093333c-33.450667 0-60.757333 27.306667-60.757334 60.757334v776.192c0 33.450667 27.306667 60.757333 60.757334 60.757333h518.144c33.450667 0 60.757333-27.306667 60.757333-60.757333V135.168c0-33.450667-27.306667-60.757333-60.757333-60.757333H254.634667z" fill="#A8A8A8" p-id="4368"></path><path d="M258.048 114.688h256c150.869333 0 273.066667 122.197333 273.066667 273.066667V914.773333c0 10.24-8.192 17.749333-17.749334 17.749334H258.048c-10.24 0-17.749333-8.192-17.749333-17.749334V132.437333c0-9.557333 8.192-17.749333 17.749333-17.749333z" fill="#A8A8A8" opacity=".08" p-id="4369"></path><path d="M769.365333 942.762667H258.048c-15.701333 0-27.989333-12.970667-27.989333-28.672V132.437333c0-15.701333 12.970667-27.989333 27.989333-27.989333h256c156.330667 0 283.306667 126.976 283.306667 283.306667V914.773333c0 15.018667-12.288 27.989333-27.989334 27.989334zM258.048 124.928c-4.096 0-7.509333 3.413333-7.509333 7.509333v781.653334c0 4.096 3.413333 7.509333 7.509333 7.509333h511.317333c4.096 0 7.509333-3.413333 7.509334-7.509333V387.754667c0-144.725333-118.101333-262.826667-262.826667-262.826667H258.048z" fill="#A8A8A8" p-id="4370"></path><path d="M799.402667 260.778667c-7.509333 0-15.018667-3.413333-19.797334-9.557334-13.653333-18.432-34.816-45.056-55.978666-67.584-15.701333-17.066667-36.181333-34.816-60.757334-53.248-8.874667-6.826667-12.288-18.432-8.874666-29.354666 3.413333-10.922667 12.970667-17.749333 23.893333-17.749334l93.525333 1.365334c28.672 0 51.882667 23.210667 51.882667 51.882666l1.365333 99.669334c0 10.922667-6.144 19.797333-17.066666 23.893333-2.048 0.682667-4.778667 0.682667-8.192 0.682667z m-121.514667-157.013334c-2.730667 0-4.096 2.730667-4.096 3.413334 0 0.682667-1.365333 4.096 1.365333 6.144 25.941333 19.114667 47.104 38.229333 64.170667 55.978666 21.845333 23.893333 43.008 50.517333 57.344 68.949334 2.048 2.048 4.096 1.365333 5.461333 1.365333 1.365333-0.682667 2.730667-1.365333 2.730667-4.096l-1.365333-98.986667c0-17.749333-14.336-31.402667-32.085334-32.085333l-93.525333-0.682667z" fill="#A8A8A8" p-id="4371"></path><path d="M522.24 584.362667c-27.306667 0-52.565333-17.066667-62.805333-41.642667h21.845333c4.096 0 4.778667-2.730667 4.778667-6.826667s-0.682667-6.826667-4.778667-6.826666h-38.912c-4.096 0-6.826667 3.413333-6.826667 6.826666v38.912c0 4.096 3.413333 4.778667 6.826667 4.778667 4.096 0 6.826667-0.682667 6.826667-4.778667V552.96c13.653333 26.624 41.642667 45.056 73.728 45.056 45.738667 0 82.602667-36.864 82.602666-82.602667h-13.653333c-0.682667 38.229333-32.085333 68.949333-69.632 68.949334z m79.872-133.12c-4.096 0-6.826667 0.682667-6.826667 4.778666V477.866667c-13.653333-26.624-41.642667-45.056-73.728-45.056-45.738667 0-82.602667 36.864-82.602666 82.602666h13.653333c0-38.229333 30.72-68.949333 68.949333-68.949333 27.306667 0 52.565333 17.066667 62.805334 41.642667h-21.845334c-4.096 0-4.778667 2.730667-4.778666 6.826666s0.682667 6.826667 4.778666 6.826667h38.912c4.096 0 6.826667-3.413333 6.826667-6.826667v-38.912c1.365333-4.096-2.048-4.778667-6.144-4.778666z" fill="#F5A200" p-id="4372"></path></svg>