<?xml version="1.0" standalone="no"?><!DOCTYPE svg PUBLIC "-//W3C//DTD SVG 1.1//EN" "http://www.w3.org/Graphics/SVG/1.1/DTD/svg11.dtd"><svg t="1645584940291" class="icon" viewBox="0 0 1024 1024" version="1.1" xmlns="http://www.w3.org/2000/svg" p-id="2313" xmlns:xlink="http://www.w3.org/1999/xlink" width="200" height="200"><defs><style type="text/css"></style></defs><path d="M120.493739 600.746667c77.824 111.274667 79.530667 254.634667 79.530666 254.634666L549.549739 549.546667c-163.84 100.693333-429.056 51.2-429.056 51.2zM600.749739 120.490667s49.493333 265.557333-51.2 429.397333l305.834666-349.866667c0.341333-0.341333-143.36-1.706667-254.634666-79.530666z" fill="#F9951E" p-id="2314"></path><path d="M94.074539 627.029333a36.590933 36.590933 0 0 0 26.146133 10.752 37.4784 37.4784 0 0 0 37.205333-37.205333 36.864 36.864 0 0 0-22.698666-34.133333 37.239467 37.239467 0 0 0-40.379734 8.226133 36.864 36.864 0 0 0-0.238933 52.360533zM574.501205 146.875733c6.929067 6.929067 16.349867 10.786133 26.146134 10.752a37.376 37.376 0 0 0 34.474666-51.370666 36.625067 36.625067 0 0 0-34.133333-22.698667 37.376 37.376 0 0 0-37.205333 37.205333c-0.034133 9.796267 3.857067 19.217067 10.752 26.112z" fill="#FFA124" p-id="2315"></path><path d="M694.275072 336.554667c-95.573333 74.752-388.778667-31.402667-388.778667-31.402667s106.154667 293.205333 31.402667 388.778667c-81.237333 103.765333-284.672 68.266667-284.672 68.266666l393.216 247.466667c29.696 29.696 186.709333 28.672 390.144-174.762667s204.117333-360.448 174.762667-390.144l-247.808-392.533333s35.157333 203.434667-68.266667 284.330667z" fill="#FFD655" p-id="2316"></path><path d="M1010.008405 445.44L762.541739 52.224s35.157333 203.434667-68.266667 284.672c-95.573333 74.752-388.778667-31.402667-388.778667-31.402667l530.090667 530.090667c203.093333-203.434667 204.117333-360.789333 174.421333-390.144z" fill="#FFC82C" p-id="2317"></path><path d="M514.563072 641.194667a86.971733 86.971733 0 0 0 62.532267 25.531733 90.658133 90.658133 0 0 0 89.429333-89.429333 86.971733 86.971733 0 0 0-88.064-88.064c-11.6736 0.1024-23.210667 2.491733-33.9968 6.997333a90.658133 90.658133 0 0 0-55.432533 82.432c-0.1024 11.605333 2.116267 23.1424 6.485333 33.8944 4.369067 10.752 10.8544 20.48 19.0464 28.637867z" fill="#FFE566" p-id="2318"></path><path d="M641.334272 514.696533c-34.474667-34.474667-90.453333-33.792-125.610667 1.024l124.586667 124.586667c34.816-35.157333 35.157333-91.136 1.024-125.610667z" fill="#FFD655" p-id="2319"></path><path d="M530.469205 625.2544a65.8432 65.8432 0 0 0 46.967467 19.2512 67.242667 67.242667 0 0 0 66.901333-66.901333 65.877333 65.877333 0 0 0-91.716266-61.0304 67.549867 67.549867 0 0 0-41.403734 61.713066 66.218667 66.218667 0 0 0 19.2512 46.967467z" fill="#FF6F48" p-id="2320"></path><path d="M625.257472 530.397867c-25.941333-25.941333-67.925333-25.6-94.208 0.682666l93.525333 93.525334c26.282667-26.282667 26.624-68.266667 0.682667-94.208z" fill="#F45C14" p-id="2321"></path><path d="M556.308139 599.415467a29.764267 29.764267 0 0 0 21.2992 8.772266 30.651733 30.651733 0 0 0 28.16-41.915733 30.0032 30.0032 0 0 0-16.2816-16.2816 30.446933 30.446933 0 0 0-41.915734 28.16 30.037333 30.037333 0 0 0 8.704 21.265067h0.034134z" fill="#F45C14" p-id="2322"></path><path d="M599.008939 599.005867a30.208 30.208 0 0 0 0.341333-42.666667 30.208 30.208 0 0 0-42.666667 0.341333l42.325334 42.325334z" fill="#FB5F2D" p-id="2323"></path><path d="M248.835072 751.616c-89.770667 29.354667-196.608 10.922667-196.608 10.922667l393.216 247.466666c18.432 18.432 87.381333 24.917333 186.709333-22.869333-128-78.165333-255.761067-156.672-383.317333-235.52z" fill="#FFC82C" p-id="2324"></path><path d="M694.275072 336.554667c-5.12 4.096-10.922667 7.168-17.066667 10.24l278.869334 339.968c80.554667-128.341333 75.776-219.818667 53.930666-241.664L762.541739 52.224s35.157333 203.434667-68.266667 284.330667z" fill="#FFB012" p-id="2325"></path><path d="M14.953472 799.607467c9.693867 9.659733 22.869333 15.018667 36.6592 14.882133a53.1456 53.1456 0 0 0 52.565333-52.565333 51.029333 51.029333 0 0 0-51.541333-51.541334c-13.892267 0.170667-27.170133 5.802667-36.9664 15.598934a53.077333 53.077333 0 0 0-15.598933 36.9664 51.2 51.2 0 0 0 14.882133 36.6592z" fill="#FFC82C" p-id="2326"></path><path d="M15.192405 786.944a32.1536 32.1536 0 0 0 23.278934 9.454933 34.030933 34.030933 0 0 0 33.4848-33.450666 32.768 32.768 0 0 0-20.138667-30.378667 33.450667 33.450667 0 0 0-36.181333 7.611733 34.065067 34.065067 0 0 0-9.898667 23.4496 32.699733 32.699733 0 0 0 9.489067 23.313067H15.192405z" fill="#FFD655" p-id="2327"></path><path d="M725.507072 89.3952c9.659733 9.659733 22.8352 15.018667 36.625067 14.882133a53.179733 53.179733 0 0 0 52.565333-52.565333 50.9952 50.9952 0 0 0-31.709867-47.786667 50.9952 50.9952 0 0 0-19.797333-3.754666c-13.9264 0.170667-27.170133 5.802667-36.9664 15.633066a53.111467 53.111467 0 0 0-15.633067 36.932267c-0.1024 13.824 5.2224 26.999467 14.882134 36.6592z" fill="#FFC82C" p-id="2328"></path><path d="M730.797739 71.748267a32.1536 32.1536 0 0 0 23.278933 9.489066 34.030933 34.030933 0 0 0 33.450667-33.450666 32.768 32.768 0 0 0-9.454934-23.3472 32.221867 32.221867 0 0 0-23.313066-9.454934 34.030933 34.030933 0 0 0-33.450667 33.450667 32.768 32.768 0 0 0 9.454933 23.278933v0.034134z" fill="#FFD655" p-id="2329"></path><path d="M245.728939 364.680533c7.68 7.68 16.7936 13.7216 26.862933 17.8176a82.944 82.944 0 0 0 63.761067-0.512 85.230933 85.230933 0 0 0 52.0192-77.380266 82.500267 82.500267 0 0 0-6.0416-31.812267 81.408 81.408 0 0 0-76.561067-50.7904 85.162667 85.162667 0 0 0-83.968 83.968 81.783467 81.783467 0 0 0 23.893333 58.709333z" fill="#FFC82C" p-id="2330"></path><path d="M245.353472 342.016a48.571733 48.571733 0 0 0 34.884267 14.2336 50.3808 50.3808 0 0 0 49.834666-49.834667 49.152 49.152 0 0 0-14.2336-34.884266 48.503467 48.503467 0 0 0-34.9184-14.267734 49.902933 49.902933 0 0 0-35.089066 14.711467 50.449067 50.449067 0 0 0-14.7456 35.089067 49.152 49.152 0 0 0 14.267733 34.952533z" fill="#FFD655" p-id="2331"></path></svg>