<?xml version="1.0" standalone="no"?><!DOCTYPE svg PUBLIC "-//W3C//DTD SVG 1.1//EN" "http://www.w3.org/Graphics/SVG/1.1/DTD/svg11.dtd"><svg t="1644369301452" class="icon" viewBox="0 0 3387 1024" version="1.1" xmlns="http://www.w3.org/2000/svg" p-id="2313" xmlns:xlink="http://www.w3.org/1999/xlink" width="661.5234375" height="200"><defs><style type="text/css"></style></defs><path d="M1236.414228 811.716923l8.664615 3.859692c21.464615 8.428308 39.345231 24.300308 50.451692 44.898462 5.395692 10.121846 8.861538 21.228308 10.31877 32.689231 2.914462 16.777846 1.969231 34.028308-2.717539 50.412307-5.513846 20.243692-17.762462 37.888-34.697846 49.860923-17.92 12.603077-38.281846 21.070769-59.667692 24.930462-15.084308 2.756923-30.326154 4.411077-45.568 4.962462h-217.009231v-407.236924h200.192c26.978462-0.354462 53.838769 4.332308 79.163077 13.863385 16.817231 6.537846 31.822769 16.935385 43.953231 30.483692 13.272615 15.320615 20.795077 34.934154 21.149538 55.414154a100.824615 100.824615 0 0 1-16.265846 65.929846c-6.852923 10.397538-15.714462 19.298462-25.993846 25.993847l-8.192 5.592615-3.780923-1.693539z m-197.986462 141.784615h117.169231c8.979692-0.590769 17.880615-2.087385 26.584615-4.411076a42.929231 42.929231 0 0 0 27.648-20.48c4.608-8.822154 6.301538-18.904615 4.883693-28.829539a41.038769 41.038769 0 0 0-7.601231-22.803692 39.660308 39.660308 0 0 0-18.983385-14.296616 89.009231 89.009231 0 0 0-39.581538-7.758769H1036.261612l2.166154 98.619077z m0-168.96h93.302154c10.633846 0.078769 21.188923-1.220923 31.468308-3.859692 9.885538-2.284308 18.825846-7.719385 25.481846-15.517538a44.189538 44.189538 0 0 0 8.152615-38.557539 44.032 44.032 0 0 0-9.294769-17.92 42.929231 42.929231 0 0 0-16.226462-11.697231 102.636308 102.636308 0 0 0-38.478769-6.616615h-94.404923v94.168615zM683.690535 934.715077h-181.16923l-32.531693 88.064H374.521305c0-4.411077 3.780923-8.861538 5.395692-12.721231l45.056-103.069538 57.501538-133.513846 63.409231-145.723077a12.406154 12.406154 0 0 1 5.395692-10.988308 11.776 11.776 0 0 1 11.972924-0.669539h72.152615a7.483077 7.483077 0 0 1 5.080615 1.260308 7.719385 7.719385 0 0 1 3.072 4.332308c18.983385 44.307692 38.518154 88.064 57.501539 132.371692l92.750769 213.307077 22.764308 52.105846v4.411077h-87.315693a7.483077 7.483077 0 0 1-5.513846-1.260308 7.758769 7.758769 0 0 1-3.150769-4.804923l-34.185846-78.690461v-5.001846l-2.756923 0.590769z m-22.803692-71.483077a18257.092923 18257.092923 0 0 0-61.833846-154.584615l-61.833846 154.584615h123.667692zM3.478843 617.787077a831.488 831.488 0 0 1 91.687385 0v328.546461h200.152615v76.996924H2.927458c-6.498462 0 0-399.478154 0-405.543385" fill="#F5A200" p-id="2314"></path><path d="M1565.118228 25.481846A250.328615 250.328615 0 0 0 1491.941612 9.964308a281.245538 281.245538 0 0 0-108.504615 12.760615 248.280615 248.280615 0 0 0-145.880615 117.444923 245.366154 245.366154 0 0 0-29.853539 103.069539 268.012308 268.012308 0 0 0 9.767385 109.134769 232.684308 232.684308 0 0 0 48.285538 83.101538l80.265846-72.585846a143.990154 143.990154 0 0 1-25.481846-62.030769 176.403692 176.403692 0 0 1 5.435077-91.963077c8.270769-25.442462 23.276308-48.049231 43.401846-65.260308a140.209231 140.209231 0 0 1 70.498462-32.295384 159.389538 159.389538 0 0 1 68.332307 0l97.673847-66.481231a167.108923 167.108923 0 0 0-40.723693-19.377231z m166.518154 204.996923a233.708308 233.708308 0 0 0-63.448616-137.412923l-71.049846 81.447385c10.24 16.856615 16.935385 35.761231 19.534769 55.414154 2.244923 11.539692 3.702154 23.197538 4.332308 34.894769a158.326154 158.326154 0 0 1-34.737231 102.518154 141.193846 141.193846 0 0 1-87.827692 55.414154 166.281846 166.281846 0 0 1-72.192-3.899077l-108.465231 61.518769a266.515692 266.515692 0 0 0 135.089231 41.550769 280.260923 280.260923 0 0 0 108.465231-13.863385 242.609231 242.609231 0 0 0 86.252307-48.009846 248.556308 248.556308 0 0 0 60.731077-78.848c22.843077-46.592 30.995692-99.249231 23.315693-150.724923zM338.720689 317.44V19.968h108.465231v493.686154H360.421612a11.145846 11.145846 0 0 1-9.255384-4.450462L119.033305 220.553846a14.690462 14.690462 0 0 0-5.435077-4.450461v296.96H5.132997v-6.065231V21.622154h87.315692a11.185231 11.185231 0 0 1 9.216 4.962461l233.235693 290.89477 4.332307 4.962461M744.972997 19.928615h108.504615v232.723693l5.395693-5.513846L1066.627151 25.442462a14.651077 14.651077 0 0 1 11.421538-4.962462h115.003077l-199.640615 221.617231c69.986462 90.860308 140.484923 181.169231 211.534769 272.580923H1078.009305a9.609846 9.609846 0 0 1-8.664616-4.450462 11783.798154 11783.798154 0 0 0-103.069538-128.512l-43.362462-55.414154-4.883692-5.513846a25.284923 25.284923 0 0 1-3.820308 3.859693l-54.232615 60.376615a11.657846 11.657846 0 0 0-3.268923 9.452308v119.099077h-111.734154V19.928615zM2427.050535 19.928615h112.797539l217.009231 493.686154h-117.76l-42.299077-104.723692H2370.612382l-42.299077 104.723692h-115.515077L2429.689305 19.928615h-2.678154z m135.049847 303.655385c0-6.104615-74.318769-186.171077-77.587693-190.070154-25.993846 63.172923-51.515077 126.345846-78.099692 190.070154h155.687385zM3115.926843 511.409231h-108.504615v-401.723077h-157.814154V19.928615h424.172308V113.033846h-157.853539v398.375385zM1907.40992 419.997538h242.451692v90.860308h-354.185846V19.928615h108.465231V422.203077l3.268923-2.166154zM651.670843 511.409231h-111.734154V19.928615h111.222154l0.512 491.480616zM3387.129305 450.441846a69.986462 69.986462 0 0 1-21.031385 49.427692 66.953846 66.953846 0 0 1-49.506462 18.707693 68.332308 68.332308 0 0 1-44.701538-22.567385 71.207385 71.207385 0 0 1-18.077538-47.497846c0-17.604923 6.459077-34.540308 18.116923-47.497846 11.579077-12.996923 27.569231-21.031385 44.662153-22.606769a66.56 66.56 0 0 1 47.970462 20.873846 69.435077 69.435077 0 0 1 19.298462 49.506461" fill="#040000" p-id="2315"></path><path d="M1713.755766 0l-345.009231 235.480615 84.086154 62.621539-235.401846 212.204308 369.427692-212.243693L1523.843151 226.067692 1713.716382 0z" fill="#F5A200" p-id="2316"></path></svg>