<?xml version="1.0" standalone="no"?><!DOCTYPE svg PUBLIC "-//W3C//DTD SVG 1.1//EN" "http://www.w3.org/Graphics/SVG/1.1/DTD/svg11.dtd"><svg t="1645586359622" class="icon" viewBox="0 0 1024 1024" version="1.1" xmlns="http://www.w3.org/2000/svg" p-id="2625" xmlns:xlink="http://www.w3.org/1999/xlink" width="200" height="200"><defs><style type="text/css"></style></defs><path d="M391.9872 440.32l-148.002133-73.216c-16.2816-8.123733-30.481067 0.1024-31.675734 18.295467l-10.581333 164.795733c-1.2288 18.193067 11.0592 39.492267 27.477333 47.616l147.899734 73.181867c16.2816 8.0896 30.583467-0.1024 31.675733-18.295467l10.615467-164.795733c1.297067-18.193067-11.093333-39.492267-27.409067-47.616z m339.285333-195.925333L583.338667 171.2128c-16.315733-8.123733-30.6176 0.1024-31.709867 18.295467l-10.581333 164.693333c-1.2288 18.193067 11.093333 39.492267 27.477333 47.581867l148.002133 73.216c16.315733 8.0896 30.6176-0.1024 31.709867-18.295467l10.478933-164.693333c1.2288-18.2272-10.990933-39.5264-27.374933-47.616z" fill="#C6C6C6" p-id="2626"></path><path d="M559.889067 725.4016c5.700267 9.898667 16.622933 11.400533 26.999466 5.393067l81.92-47.377067a16.5888 16.5888 0 1 0-16.520533-28.808533l-52.565333 30.378666 13.585066-33.1776c14.779733-36.181333 20.48-56.1152 5.870934-81.408l-0.170667-0.4096c-16.315733-28.194133-47.616-34.577067-78.916267-16.4864-22.869333 13.2096-32.290133 29.5936-36.283733 50.5856a18.5344 18.5344 0 0 0 2.082133 12.4928 17.408 17.408 0 0 0 23.790934 6.417067 17.032533 17.032533 0 0 0 8.3968-11.195733c3.106133-13.892267 7.509333-21.8112 17.032533-27.409067 11.8784-6.792533 24.200533-4.778667 31.573333 7.918933 7.202133 12.4928 4.8128 25.1904-5.188266 51.370667l-22.596267 60.0064c-2.901333 7.918933-2.730667 15.291733 1.024 21.7088z" fill="#E8E8E8" p-id="2627"></path><path d="M900.881067 507.016533a72.567467 72.567467 0 0 1-9.796267 72.874667c-36.864 44.817067-118.4768 108.509867-221.184 169.096533-100.386133 59.118933-193.399467 98.9184-250.094933 110.216534a73.1136 73.1136 0 0 1-70.212267-27.818667c0.3072 0.4096 0.4096 1.024 0.8192 1.399467l-240.196267-310.784c0.068267-0.3072 0.580267-0.2048 0.170667-1.024a24.576 24.576 0 0 1 9.3184-33.5872 23.893333 23.893333 0 0 1 14.506667-2.798934l222.481066 45.909334-16.2816-294.2976a34.474667 34.474667 0 0 1 51.0976-31.300267l248.081067 162.2016 70.109867-211.626667c0.1024 0 0.2048 0.8192 0.2048 0.512a25.019733 25.019733 0 0 1 11.502933-14.574933 24.6784 24.6784 0 0 1 33.6896 8.772267c0.3072 0.6144 0.4096 0.1024 0.785067 0.2048l148.002133 361.198933c-0.989867-1.604267-2.184533-2.696533-3.003733-4.573867z" fill="#E8E8E8" p-id="2628"></path><path d="M510.3616 657.783467c6.7584 11.605333 19.626667 13.380267 31.744 6.382933l96.494933-55.637333a19.217067 19.217067 0 0 0 7.2704-26.624 19.456 19.456 0 0 0-26.897066-7.099734l-61.986134 35.7376 16.110934-39.0144c17.408-42.5984 24.234667-66.116267 6.997333-95.8464l-0.238933-0.512c-19.2512-33.245867-56.1152-40.7552-92.842667-19.490133-26.897067 15.496533-38.161067 34.850133-42.9056 59.5968-0.989867 4.881067 0 10.513067 2.389333 14.882133 5.632 9.898667 18.090667 13.243733 28.125867 7.611734a20.548267 20.548267 0 0 0 10.001067-13.243734c3.754667-16.384 8.738133-25.736533 20.002133-32.085333 13.858133-8.157867 28.501333-5.632 37.102933 9.352533 8.533333 14.7456 5.495467 29.627733-6.144 60.381867l-26.487466 70.3488c-3.345067 8.874667-3.242667 17.5104 1.262933 25.258667z" fill="#949494" p-id="2629"></path></svg>