<?xml version="1.0" standalone="no"?><!DOCTYPE svg PUBLIC "-//W3C//DTD SVG 1.1//EN" "http://www.w3.org/Graphics/SVG/1.1/DTD/svg11.dtd"><svg t="1645586379098" class="icon" viewBox="0 0 1024 1024" version="1.1" xmlns="http://www.w3.org/2000/svg" p-id="2773" xmlns:xlink="http://www.w3.org/1999/xlink" width="200" height="200"><defs><style type="text/css"></style></defs><path d="M391.9872 439.296l-148.002133-73.181867c-16.2816-8.123733-30.481067 0.068267-31.675734 18.295467l-10.581333 164.795733c-1.2288 18.193067 11.0592 39.492267 27.477333 47.581867l147.899734 73.216c16.2816 8.0896 30.583467-0.1024 31.675733-18.295467l10.615467-164.795733c1.297067-18.2272-11.093333-39.5264-27.409067-47.616z m339.285333-195.925333L583.338667 170.222933c-16.315733-8.0896-30.6176 0.1024-31.709867 18.295467l-10.581333 164.727467c-1.2288 18.193067 11.093333 39.492267 27.477333 47.581866l148.002133 73.216c16.315733 8.0896 30.6176-0.1024 31.709867-18.3296l10.478933-164.693333c1.2288-18.193067-10.990933-39.492267-27.374933-47.581867z" fill="#AA733D" p-id="2774"></path><path d="M559.889067 724.411733c5.700267 9.898667 16.622933 11.400533 26.999466 5.393067l81.92-47.4112a16.5888 16.5888 0 1 0-16.520533-28.808533l-52.565333 30.4128 13.585066-33.211734c14.779733-36.181333 20.48-56.081067 5.870934-81.373866l-0.170667-0.4096c-16.315733-28.194133-47.616-34.6112-78.916267-16.4864-22.869333 13.175467-32.290133 29.5936-36.283733 50.5856a18.5344 18.5344 0 0 0 2.082133 12.4928 17.408 17.408 0 0 0 23.790934 6.417066 17.032533 17.032533 0 0 0 8.3968-11.195733c3.106133-13.9264 7.509333-21.845333 17.032533-27.409067 11.8784-6.826667 24.200533-4.778667 31.573333 7.8848 7.202133 12.4928 4.8128 25.224533-5.188266 51.4048l-22.596267 60.0064c-2.901333 7.8848-2.730667 15.291733 1.024 21.7088z" fill="#E5E5E5" p-id="2775"></path><path d="M900.881067 505.992533a72.567467 72.567467 0 0 1-9.796267 72.9088c-36.864 44.782933-118.4768 108.509867-221.184 169.096534-100.386133 59.0848-193.399467 98.884267-250.094933 110.216533a73.1136 73.1136 0 0 1-70.212267-27.818667c0.3072 0.4096 0.4096 1.024 0.8192 1.399467l-240.196267-310.784c0.068267-0.341333 0.580267-0.2048 0.170667-1.024a24.576 24.576 0 0 1 9.3184-33.5872 23.893333 23.893333 0 0 1 14.506667-2.798933l222.481066 45.909333-16.2816-294.2976a34.474667 34.474667 0 0 1 51.0976-31.300267l248.081067 162.2016 70.109867-211.626666c0.1024 0 0.2048 0.8192 0.2048 0.512a25.019733 25.019733 0 0 1 11.502933-14.609067 24.6784 24.6784 0 0 1 33.6896 8.8064c0.3072 0.6144 0.4096 0.1024 0.785067 0.2048l148.002133 361.198933c-0.989867-1.604267-2.184533-2.730667-3.003733-4.608z" fill="#CA9561" p-id="2776"></path><path d="M607.163733 660.8896c41.096533-23.7568 51.473067-63.761067 31.5392-98.577067l-0.273066-0.546133c-19.797333-34.269867-51.746133-33.1776-79.325867-23.074133l16.110933-55.296c3.2768-11.332267 4.9152-19.6608-1.092266-29.627734-6.280533-11.0592-18.978133-12.834133-30.856534-6.007466l-89.531733 52.155733a20.343467 20.343467 0 0 0-7.3728 27.4432c5.461333 9.4208 17.885867 12.834133 27.409067 7.3728l56.5248-32.631467-14.711467 56.5248c-2.628267 9.8304-2.3552 16.110933 0.8192 21.572267 5.461333 9.4208 17.851733 12.834133 27.409067 7.3728l6.280533-3.6864c22.528-13.1072 40.823467-12.424533 49.5616 2.594133l0.273067 0.546134c7.918933 13.789867 2.048 28.672-13.1072 37.410133-14.472533 8.465067-28.125867 10.103467-43.963734 7.099733a23.313067 23.313067 0 0 0-15.837866 2.4576 22.9376 22.9376 0 0 0-8.328534 30.72c3.413333 5.7344 9.693867 9.4208 15.1552 10.513067 22.528 4.096 47.104 0.8192 73.3184-14.336z" fill="#994C00" p-id="2777"></path></svg>