<?xml version="1.0" standalone="no"?><!DOCTYPE svg PUBLIC "-//W3C//DTD SVG 1.1//EN" "http://www.w3.org/Graphics/SVG/1.1/DTD/svg11.dtd"><svg t="1644397125693" class="icon" viewBox="0 0 1985 1024" version="1.1" xmlns="http://www.w3.org/2000/svg" p-id="2894" xmlns:xlink="http://www.w3.org/1999/xlink" width="387.6953125" height="200"><defs><style type="text/css"></style></defs><path d="M729.449638 459.917021l5.054736 2.207448c12.540865 4.766808 22.970257 13.756561 29.432642 25.401649 3.167208 5.75856 5.182704 12.060985 6.046488 18.555362 1.695576 9.501625 1.151712 19.291177-1.5996 28.536865a50.867283 50.867283 0 0 1-20.250937 28.28093 88.68183 88.68183 0 0 1-34.83929 14.108473 191.152212 191.152212 0 0 1-26.585354 2.815296h-126.656336v-230.726318h116.834791c15.772057-0.191952 31.416146 2.463384 46.228443 7.83804 9.789553 3.711072 18.555361 9.597601 25.657586 17.275681 7.742064 8.669833 12.124969 19.803049 12.348913 31.384154 1.375656 13.180705-2.015496 26.425394-9.501625 37.366659a52.082979 52.082979 0 0 1-15.196201 14.748313l-4.766808 3.135216-2.207448-0.95976z m-115.555112 80.363909h68.366909c5.246688-0.351912 10.461385-1.183704 15.516121-2.527368a25.433642 25.433642 0 0 0 16.155961-11.613097 26.457386 26.457386 0 0 0 2.87928-16.315921 22.810297 22.810297 0 0 0-15.548113-21.018745 53.298675 53.298675 0 0 0-23.098226-4.414897h-65.551612l1.27968 55.890028z m0-95.752062h54.450388c6.206448 0.063984 12.348913-0.703824 18.363409-2.207448a27.929018 27.929018 0 0 0 14.876281-8.765809 24.697826 24.697826 0 0 0-10.141465-38.614346 61.584604 61.584604 0 0 0-22.458385-3.775057h-55.090228v53.36266zM406.842289 529.627593H301.044739l-18.971257 49.907523H226.375406c0-2.527368 2.23944-5.022744 3.167208-7.230192l26.265434-58.385404 33.591602-75.661085 37.014746-82.539365a6.87828 6.87828 0 0 1 6.590353-7.35816 7.03824 7.03824 0 0 1 3.51912 0.735816h42.133467a4.47888 4.47888 0 0 1 4.734816 3.135216c11.101225 25.113722 22.490377 49.907523 33.591602 75.021245l54.130467 120.865783 13.276681 29.528618v2.495376h-50.963259a4.382904 4.382904 0 0 1-5.054736-3.455136l-19.963009-44.564859v-2.815296l-1.599601 0.31992z m-13.308672-40.501874c-12.028993-29.528618-23.738065-58.097476-36.086979-87.594102l-36.086978 87.594102H393.501625zM9.821545 350.024494c17.819545-0.95976 35.671082-0.95976 53.490627 0v186.193452h116.834791v43.63709H9.501625c-3.807048 0 0-226.375406 0-229.830542M921.305674 14.428393a149.914521 149.914521 0 0 0-42.741315-8.765809 168.821795 168.821795 0 0 0-63.344164 7.198201 144.155961 144.155961 0 0 0-85.130717 66.543364 135.966008 135.966008 0 0 0-17.435641 58.417396 147.643089 147.643089 0 0 0 5.726568 61.840539c5.950512 17.499625 15.548113 33.527618 28.152962 47.092227L793.40165 205.612597a80.299925 80.299925 0 0 1-14.876281-35.15921 97.15971 97.15971 0 0 1 3.167208-52.114972c4.7988-14.396401 13.596601-27.193202 25.337665-36.950762a82.987253 82.987253 0 0 1 41.141715-18.299425c13.148713-2.783304 26.745314-2.783304 39.894027 0L945.043739 25.433642a98.823294 98.823294 0 0 0-23.738065-11.005249z m97.191702 116.162959a130.783304 130.783304 0 0 0-37.046739-77.836541L939.989003 98.855286c5.982504 9.565609 9.885529 20.250937 11.389152 31.384154 1.311672 6.526368 2.175456 13.116721 2.559361 19.803049 0.447888 21.114721-6.750312 41.717571-20.28293 58.065484-12.476881 16.507873-30.808298 27.705074-51.283179 31.384154a99.911022 99.911022 0 0 1-42.101474-2.175456l-63.344164 34.83929a159.416146 159.416146 0 0 0 78.828292 23.546113 168.181955 168.181955 0 0 0 63.344164-7.870032 142.812297 142.812297 0 0 0 50.32342-27.193202 141.788553 141.788553 0 0 0 49.075731-130.07948zM205.484629 179.891027V11.293177h63.312172v279.738065H218.153462a6.71832 6.71832 0 0 1-5.406649-2.527368L77.260685 124.96076a8.541865 8.541865 0 0 0-3.1992-2.527368v168.27793H10.781305v-3.455136V12.252937H61.744564a6.71832 6.71832 0 0 1 5.374656 2.815296l136.125969 164.822794 2.55936 2.815296M442.609348 11.293177h63.344164v131.871032l3.135216-3.135216L630.338415 14.396401a8.573857 8.573857 0 0 1 6.654337-2.815296h67.11922l-116.514871 125.568608c40.853787 51.507123 82.027493 102.694326 123.489127 154.457385h-74.093476a5.75856 5.75856 0 0 1-5.054737-2.495376 6698.389403 6698.389403 0 0 0-60.144963-72.845788l-25.337666-31.384154-2.87928-3.135217a14.620345 14.620345 0 0 1-2.175456 2.175456l-31.672082 34.231443a6.590352 6.590352 0 0 0-1.91952 5.342664v67.503124h-65.1997V11.293177zM1424.379905 11.293177h65.871532l126.624344 279.738065h-68.686828l-24.697826-59.345164h-132.030992l-24.697826 59.345164h-67.43914L1425.979505 11.293177h-1.5996z m78.828293 172.052986c0-3.455136-43.349163-105.477631-45.268683-107.685078-15.196201 35.79905-30.072482 71.566108-45.588603 107.685078h90.857286zM1826.487378 289.751562h-63.344164V62.16046h-92.136966V11.293177h247.618096v52.754811h-92.136966v225.703574zM1121.095726 237.956511h141.500625v51.507123h-206.732317V11.293177h63.344164v227.911022l1.887528-1.247688zM388.15896 289.751562h-65.231692V11.293177h64.911772l0.31992 278.458385zM1984.783804 255.232192a38.582354 38.582354 0 0 1-12.284929 27.993002 39.31817 39.31817 0 0 1-28.888778 10.621344 40.309923 40.309923 0 0 1-26.105473-12.7968 39.670082 39.670082 0 0 1 0-53.84254c6.782304-7.35816 16.091977-11.901025 26.105473-12.796801a39.862034 39.862034 0 0 1 27.993002 11.837041 39.15821 39.15821 0 0 1 11.261185 28.056986" fill="#FFFFFF" opacity=".6" p-id="2895"></path><path d="M1008.067983 0l-201.357661 133.406648 49.075731 35.511123-137.405648 120.225943 215.594101-120.257935-36.726818-40.789803L1008.067983 0zM0 1013.378655c6.87828-11.965009 13.020745-24.313922 18.363409-37.046738 4.414896-11.261185 8.125969-22.810297 11.069233-34.551362 5.886528-31.768058 8.413897-64.047988 7.614096-96.35991v-80.683829H243.459135v82.571357H53.490627c0 21.658585 0 40.501875-2.207448 56.817796a260.990752 260.990752 0 0 1-5.374656 41.461634c-2.495376 12.476881-6.206448 24.633842-11.069233 36.406898-5.566608 13.756561-12.156961 27.065234-19.643089 39.862035L0 1013.378655z m56.369908-182.994251h169.365658v-45.844539H56.369908v45.812547z m56.337915 34.19945v62.768308l34.19945-13.180705c12.668833-5.022744 24.697826-10.045489 36.406898-15.356161l31.672082-14.460385 22.138466-10.973256 8.861784 17.883529c-8.221945 4.382904-17.723569 9.085729-29.112721 14.108473l-35.447139 15.708073-36.43889 14.748312a2897.195701 2897.195701 0 0 1-31.672082 11.933017v26.393402a18.395401 18.395401 0 0 0 4.7988 14.396401c4.47888 3.263184 9.917521 4.926768 15.484129 4.734816H213.386653c3.743064 0.095976 7.486128-0.447888 11.069233-1.567608a17.147713 17.147713 0 0 0 6.334416-3.135216 17.851537 17.851537 0 0 0 3.519121-5.022745c0-1.5996 0-3.775056 1.567608-5.950512a40.181955 40.181955 0 0 1 0-7.870032v-20.698826-6.910272l20.250937 6.270432c-0.127968 2.07948-0.127968 4.15896 0 6.270433v10.045488l-1.91952 11.293177c0 3.775056 0 7.230192-1.567608 10.045489a31.352162 31.352162 0 0 1-11.389153 18.875281c-7.998 5.43864-17.531617 8.189953-27.225194 7.83804H127.584104a36.27893 36.27893 0 0 1-25.945514-9.11772c-5.790552-6.71832-8.733817-15.356161-8.253936-24.185954v-115.491127l19.323169 0.607848zM477.448638 752.803799v49.907523h119.330167v18.875281h-119.330167v62.768308h82.603349v130.271432h-186.449388v-130.271432h83.24319V821.554611h-118.370408v-18.811297h119.330168v-49.907523h19.643089z m-83.275181 241.443639h146.587353v-91.689078H394.141465v91.689078zM764.928768 887.170207l-18.075481 7.230193-19.611098 7.550112v88.84179c0.191952 4.062984 0.191952 8.157961 0 12.220945a19.355161 19.355161 0 0 1-3.51912 8.189952 13.916521 13.916521 0 0 1-6.942264 4.702824c-3.551112 1.27968-7.294176 2.143464-11.069233 2.495377h-25.337665l-3.487129-20.410898H703.824044a5.75856 5.75856 0 0 0 4.126968-1.855536 6.87828 6.87828 0 0 0 1.5996-4.094976 51.059235 51.059235 0 0 0 0-7.550112V906.973257l-19.963009 6.87828-19.003249 6.302425-5.694576-18.555362 22.170457-6.55836 22.458385-7.550113V824.753812H671.512122v-18.235442h38.006498v-53.362659h18.043489v53.362659h33.239691v18.235442h-33.271683v57.137715c5.726568-2.23944 11.421145-4.094976 16.795802-6.622344l16.795801-6.590353 3.775056 18.555361z m79.116221 102.054487c7.934016-23.226193 15.516121-48.051987 22.810297-74.733317a1297.595601 1297.595601 0 0 0 19.003249-79.116221l19.611098 3.455136c-2.943264 12.796801-6.110472 25.657586-9.501625 38.614347-3.167208 13.180705-6.622344 26.073482-10.109473 38.934266-3.51912 12.860785-7.294176 25.433642-11.101224 37.686579-3.775056 12.220945-7.262184 24.153962-11.069233 35.15921h69.006748v18.203449h-186.161459v-18.235441h97.511622z m82.955261-188.368908v18.203449h-158.296426v-18.235441h158.296426z m-116.802799 163.543114c0-9.405649-3.83904-19.771057-6.334417-31.352162-2.55936-11.645089-5.086728-22.010497-7.934016-32.983754-2.847288-11.005249-5.694576-21.370657-8.541865-31.416146-2.87928-10.045489-6.014496-19.131217-8.541864-26.681329l18.043489-4.702825c2.527368 8.157961 5.374656 17.595601 8.221944 28.248938 2.87928 10.685329 6.014496 21.050737 8.861785 31.416146 2.87928 10.333417 5.694576 21.946513 8.253936 31.352162 2.527368 9.437641 5.054736 20.762809 6.942265 29.24069l-18.971257 6.87828z m26.873281-165.430642a256.127968 256.127968 0 0 0-6.622344-22.618345 213.258685 213.258685 0 0 0-7.934017-20.378906l18.68333-5.342664c2.55936 6.590352 5.086728 13.820545 7.614096 21.018745 2.527368 7.230192 4.734816 15.068233 6.654336 22.938266l-18.363409 4.382904zM1251.207198 1021.248688l-27.545114-15.068233-25.977505-13.212697-26.233442-11.901025-28.216946-11.325168a131.167208 131.167208 0 0 1-47.476131 31.416146c-25.497626 9.981505-51.891027 17.563609-78.828292 22.586353l-7.614097-19.163209c16.539865-2.943264 32.951762-6.71832 49.075731-11.293177a217.865534 217.865534 0 0 0 36.406898-13.180705c9.405649-4.15896 18.139465-9.661585 25.977506-16.315921 6.782304-5.726568 12.572857-12.476881 17.083729-20.090977h-132.63884v-18.843289h141.180705c2.687328-7.742064 4.47888-15.740065 5.406648-23.866034 0-8.477881 1.887528-17.915521 2.527368-28.248937v-11.933017-15.676081-27.32117h19.611097v57.457636c0 9.405649 0 18.491377-2.207448 26.681329a155.609098 155.609098 0 0 1-4.734816 22.906274h97.511622v18.843289h-102.91827a31.128218 31.128218 0 0 1-2.527369 5.630592l-2.847288 5.342665c7.614096 3.135216 16.155961 6.302424 25.017746 10.365408 8.861785 4.094976 17.723569 7.550112 27.225194 11.613097 9.501625 4.094976 18.363409 8.157961 27.545113 12.860785l26.585354 13.212697-11.389153 18.523369z m-119.330167-234.181455c-1.91952-5.694576-4.47888-11.325169-7.006249-16.955761a183.762059 183.762059 0 0 0-7.902024-15.708073l18.683329-6.302424c1.11972 2.783304 2.3994 5.502624 3.807048 8.15796l4.414896 10.365409 4.766809 10.685329c0 3.455136 2.527368 6.910272 3.775056 9.725568h100.67883v57.137716h-18.971257v-39.542115H1034.941265v38.902275h-18.683329v-56.497876h115.555111z m-25.689578 130.55936l-35.127218-21.978505c-12.348913-7.1982-24.057986-13.500625-34.83929-19.451137l9.501624-14.140465 17.115721 8.7978 18.36341 10.365409 18.043489 10.685329 16.443889 10.045488-9.501625 15.676081z m19.963009-45.524618l-15.516121-10.333417c-5.694576-3.775056-11.389153-7.550112-17.403649-11.005249l-17.115721-10.045488-14.876281-8.477881 9.821545-14.428393 15.196201 8.157961 17.403649 10.365408 17.115721 10.653337 15.196201 9.437641-9.821545 15.676081zM1331.635091 941.204699l15.484129-1.5996c6.622344-0.703824 13.180705-1.75956 19.643089-3.135216l19.64309-3.775057 15.516121-3.743064 1.887528 17.563609-15.196201 3.455136-19.323169 4.094977-19.611098 2.815296-15.196201 1.887528-2.87928-17.595601z m90.857286-173.620595l-7.294177 112.067983h13.308673v69.35866l-1.91952 37.366659c-0.095976 4.15896-0.831792 8.317921-2.207448 12.252936a17.883529 17.883529 0 0 1-5.054736 8.157961 23.194201 23.194201 0 0 1-9.181705 5.022744 76.108973 76.108973 0 0 1-14.876281 2.527368h-29.784554l-3.775056-19.163209H1391.140215c3.263184 0.383904 6.55836 0.383904 9.821545 0a8.221945 8.221945 0 0 0 5.694576-2.815296 11.517121 11.517121 0 0 0 2.55936-5.982504c0.223944-3.327168 0.223944-6.71832 0-10.045489v-13.180705-15.036241-21.370657-31.416146h-63.344164l6.974257-99.175206h16.443889l-6.334417 82.219445h31.672082l6.334417-94.152462h-65.231693v-16.955761l86.76231 0.31992z m-1.91952 85.706573a297.013747 297.013747 0 0 0 50.035491-46.804299 261.566608 261.566608 0 0 0 34.51937-53.970507h17.403649a243.843039 243.843039 0 0 0 34.83929 54.610347 298.485379 298.485379 0 0 0 49.075731 46.164459l-10.781304 14.428393a338.635341 338.635341 0 0 1-47.796051-43.63709c-13.628593-15.100225-25.017746-31.992002-33.911522-50.227444a247.586103 247.586103 0 0 1-34.167459 50.227444 385.183704 385.183704 0 0 1-48.115971 43.63709l-11.069232-14.428393z m108.292927 136.541865c2.87928-5.950512 5.694576-13.500625 8.861784-21.978506l9.501625-28.568857c3.807048-12.220945 6.974256-23.226193 9.821544-33.271682 2.847288-10.045489 4.734816-18.523369 6.334417-26.04149l17.083729 3.743064c-3.167208 15.388153-8.861785 35.511122-16.443889 59.985004-3.1992 9.405649-6.334416 17.883529-8.893777 25.433642-2.527368 7.51812-5.374656 14.716321-8.221944 20.698825h49.395651v18.555361H1430.682329v-18.555361h98.151463z m-68.078981-109.572607c2.55936 6.046488 4.670832 12.220945 6.334417 18.555361 2.23944 7.1982 4.446888 15.356161 6.974256 24.793802 4.126968 14.236441 7.390152 28.696826 9.821545 43.31717l-15.516121 5.662585a192.527868 192.527868 0 0 0-3.51912-19.195201c-1.567608-7.51812-3.455136-15.676081-5.982505-25.08173a308.114971 308.114971 0 0 0-12.988753-43.029243l14.876281-5.022744z m107.973007-32.951762v18.235441h-110.180455v-18.235441h110.180455z m-59.825044 29.816546c3.167208 9.117721 6.942264 22.298425 11.709073 39.574106 4.734816 17.275681 6.942264 31.384154 8.541865 40.821795l-15.836041 4.702824c0-5.022744-1.91952-11.005249-3.167209-17.915521-1.27968-6.910272-3.167208-14.428393-5.054736-22.906273-1.91952-8.477881-4.446888-15.996001-6.334416-22.618346-1.91952-6.590352-3.807048-12.220945-5.374657-17.275681l15.516121-4.382904zM1810.331417 916.378905v26.04149h92.136966v17.595601h-92.136966v35.47913h119.330168v17.275681h-258.975257v-17.275681h120.32192v-35.47913h-91.177206v-17.595601h92.776806v-26.04149h17.723569z m-13.948513-130.911272l-4.094976-8.7978-5.406648-11.613097a76.076981 76.076981 0 0 0-4.414897-8.797801l19.291178-5.310672c1.91952 3.135216 3.583104 6.3984 5.086728 9.725569 2.175456 4.15896 4.094976 8.445889 5.694576 12.860784l5.374657 11.933017h100.99875v42.069483h-19.003249v-25.753562h-200.077981v25.753562h-19.003249v-43.029243l115.555111 0.95976z m-101.926518 109.860535a24.217946 24.217946 0 0 0 9.181704-1.567608c2.87928-1.151712 5.662584-2.623344 8.221945-4.382904 9.181705-6.270432 17.403649-12.860785 25.337666-19.16321 7.902024-6.270432 15.804049-12.860785 23.098225-19.451137h-60.464884v-16.315921h201.357661v16.315921h-114.627343c-8.221945 7.83804-17.083729 15.676081-25.945514 22.906274-8.861785 7.230192-18.683329 14.780305-29.112722 22.298425h39.254187l40.181954-1.887528h28.504874l24.377905-1.887528-14.87628-13.180705-13.916521-11.293177 10.109472-12.572857c11.965009 8.157961 23.386153 17.083729 34.231442 26.68133l18.011498 16.635841c5.086728 5.054736 9.821545 9.437641 13.308672 13.532617l-12.668832 13.468633-7.902025-8.157961-9.181704-9.405648-40.533867 2.207448-50.963259 2.175456c-38.83829 1.27968-69.870532 1.27968-93.096726 0l-1.91952-16.955761z" fill="#FFFFFF" opacity=".6" p-id="2896"></path></svg>