<?xml version="1.0" standalone="no"?><!DOCTYPE svg PUBLIC "-//W3C//DTD SVG 1.1//EN" "http://www.w3.org/Graphics/SVG/1.1/DTD/svg11.dtd"><svg t="1648201851509" class="icon" viewBox="0 0 1024 1024" version="1.1" xmlns="http://www.w3.org/2000/svg" p-id="2496" xmlns:xlink="http://www.w3.org/1999/xlink" width="200" height="200"><defs><style type="text/css">@font-face { font-family: feedback-iconfont; src: url("//at.alicdn.com/t/font_1031158_u69w8yhxdu.woff2?t=1630033759944") format("woff2"), url("//at.alicdn.com/t/font_1031158_u69w8yhxdu.woff?t=1630033759944") format("woff"), url("//at.alicdn.com/t/font_1031158_u69w8yhxdu.ttf?t=1630033759944") format("truetype"); }
</style></defs><path d="M407.771429 618.057143c-1.828571-1.828571-5.485714-1.828571-7.314286-1.828572h-23.771429v20.114286h23.771429c1.828571 0 3.657143 0 5.485714-1.828571 1.828571 0 1.828571 0 3.657143-1.828572 1.828571 0 1.828571-1.828571 1.828571-1.828571 1.828571-1.828571 1.828571-3.657143 1.828572-5.485714 0-1.828571 0-3.657143-1.828572-5.485715 0 0-1.828571 0-3.657142-1.828571zM402.285714 601.6c1.828571 0 3.657143-1.828571 5.485715-3.657143 0-1.828571 1.828571-1.828571 1.828571-3.657143v-3.657143c0-1.828571-1.828571-1.828571-1.828571-3.657142-1.828571-1.828571-1.828571-1.828571-3.657143-1.828572-1.828571-1.828571-5.485714-1.828571-7.314286-1.828571h-20.114286V603.428571h18.285715c3.657143-1.828571 5.485714-1.828571 7.314285-1.828571zM274.285714 619.885714h25.6l-12.8-32.914285zM658.285714 506.514286h31.085715c0-1.828571-14.628571-38.4-16.457143-40.228572-3.657143 12.8-9.142857 25.6-14.628572 40.228572z" fill="#E8E8E8" p-id="2497"></path><path d="M512 0C228.571429 0 0 228.571429 0 512s228.571429 512 512 512 512-228.571429 512-512S795.428571 0 512 0z m3.657143 438.857143l-38.4 47.542857 12.8 14.628571-76.8 43.885715 47.542857-43.885715-16.457143-12.8 71.314286-49.371428z m-98.742857 29.257143c7.314286-12.8 16.457143-20.114286 29.257143-23.771429 7.314286-1.828571 14.628571-3.657143 21.942857-1.828571 5.485714 0 10.971429 1.828571 14.628571 3.657143 3.657143 1.828571 5.485714 1.828571 9.142857 3.657142l-20.114285 14.628572c-3.657143-1.828571-9.142857-1.828571-14.628572 0-5.485714 0-10.971429 3.657143-14.628571 7.314286-3.657143 3.657143-7.314286 9.142857-9.142857 12.8-1.828571 5.485714-1.828571 12.8-1.828572 20.114285 0 5.485714 1.828571 9.142857 5.485714 12.8l-12.8 12.8c-3.657143-5.485714-7.314286-10.971429-9.142857-18.285714-1.828571-7.314286-3.657143-14.628571-1.828571-21.942857-1.828571-7.314286 0-14.628571 3.657143-21.942857zM274.285714 544.914286v-102.4h21.942857v102.4H274.285714z m-49.371428 107.885714H164.571429c-1.828571 0 0-84.114286 0-84.114286h18.285714v69.485715h40.228571v14.628571z m12.8-107.885714c-1.828571 0-1.828571 0 0 0l-49.371429-60.342857h-1.828571v62.171428H164.571429v-1.828571-100.571429h20.114285l47.542857 60.342857v1.828572-62.171429H256v102.4l-18.285714-1.828571z m93.257143 107.885714h-18.285715-1.828571v-1.828571c-1.828571-5.485714-5.485714-10.971429-7.314286-16.457143v-1.828572h-36.571428l-7.314286 18.285715h-20.114286s0-1.828571 1.828572-1.828572l9.142857-21.942857 10.971428-27.428571c3.657143-10.971429 9.142857-20.114286 12.8-31.085715 0 0 0-1.828571 1.828572-1.828571h16.457143l10.971428 27.428571c5.485714 14.628571 12.8 29.257143 18.285714 43.885715 7.314286 5.485714 7.314286 9.142857 9.142858 14.628571z m21.942857-148.114286s0 1.828571 0 0l-12.8 12.8v27.428572h-21.942857v-102.4h21.942857V491.885714l1.828571-1.828571 42.057143-45.714286h27.428571l-40.228571 45.714286 43.885714 56.685714h-25.6-1.828571l-20.114286-27.428571-14.628571-14.628572z m78.628571 131.657143c-1.828571 3.657143-3.657143 7.314286-7.314286 10.971429-3.657143 1.828571-7.314286 3.657143-12.8 5.485714-3.657143 0-5.485714 1.828571-9.142857 1.828571h-45.714285v-85.942857h40.228571c5.485714 0 10.971429 1.828571 16.457143 3.657143 3.657143 1.828571 7.314286 3.657143 9.142857 5.485714 3.657143 3.657143 3.657143 7.314286 5.485714 10.971429 0 5.485714 0 9.142857-3.657143 12.8l-5.485714 5.485714-1.828571 1.828572h1.828571c3.657143 1.828571 7.314286 5.485714 10.971429 9.142857 1.828571 1.828571 1.828571 3.657143 1.828571 7.314286 1.828571 3.657143 1.828571 7.314286 0 10.971428z m80.457143-113.371428c-5.485714 10.971429-16.457143 18.285714-27.428571 21.942857-7.314286 1.828571-14.628571 3.657143-21.942858 3.657143-7.314286 0-14.628571-1.828571-21.942857-5.485715-1.828571-1.828571-3.657143-1.828571-7.314285-3.657143l21.942857-12.8c5.485714 1.828571 9.142857 1.828571 14.628571 0 7.314286-1.828571 12.8-5.485714 18.285714-10.971428 5.485714-5.485714 7.314286-14.628571 7.314286-21.942857v-7.314286c0-3.657143-1.828571-7.314286-3.657143-10.971429l14.628572-18.285714c7.314286 7.314286 12.8 18.285714 12.8 29.257143 1.828571 12.8 0 25.6-7.314286 36.571429z m93.257143 21.942857h-73.142857v-102.4h23.771428v85.942857h49.371429v16.457143z m100.571428 0c-3.657143-7.314286-5.485714-14.628571-9.142857-21.942857h-45.714285l-9.142858 21.942857h-23.771428c14.628571-34.742857 29.257143-69.485714 43.885714-102.4h23.771429l43.885714 102.4h-23.771429z m98.742858 0h-21.942858v-84.114286H749.714286v-20.114286h87.771428v20.114286H804.571429v84.114286z m51.2-1.828572c-1.828571 1.828571-5.485714 3.657143-9.142858 3.657143s-7.314286-1.828571-9.142857-3.657143c-1.828571-1.828571-3.657143-5.485714-3.657143-10.971428 0-3.657143 1.828571-7.314286 3.657143-10.971429 1.828571-1.828571 5.485714-3.657143 9.142857-3.657143s7.314286 1.828571 9.142858 3.657143c1.828571 1.828571 3.657143 5.485714 3.657142 10.971429 0 3.657143-1.828571 7.314286-3.657142 10.971428z" fill="#E8E8E8" p-id="2498"></path></svg>